<?xml version="1.0" encoding="UTF-8" standalone="no"?>
<!DOCTYPE svg PUBLIC "-//W3C//DTD SVG 1.1//EN"
 "http://www.w3.org/Graphics/SVG/1.1/DTD/svg11.dtd">
<!-- Generated by graphviz version 2.38.0 (20140413.2041)
 -->
<!-- Title: Perl Pages: 1 -->
<svg width="511pt" height="548pt"
 viewBox="0.00 0.00 511.32 548.00" xmlns="http://www.w3.org/2000/svg" xmlns:xlink="http://www.w3.org/1999/xlink">
<g id="graph0" class="graph" transform="scale(1 1) rotate(0) translate(4 544)">
<title>Perl</title>
<polygon fill="white" stroke="none" points="-4,4 -4,-544 507.315,-544 507.315,4 -4,4"/>
<!-- Real Garden -->
<g id="node1" class="node"><title>Real Garden</title>
<polygon fill="none" stroke="green" stroke-width="3" points="209.775,-540 123.775,-540 123.775,-536 119.775,-536 119.775,-532 123.775,-532 123.775,-512 119.775,-512 119.775,-508 123.775,-508 123.775,-504 209.775,-504 209.775,-540"/>
<polyline fill="none" stroke="green" stroke-width="3" points="123.775,-536 127.775,-536 127.775,-532 123.775,-532 "/>
<polyline fill="none" stroke="green" stroke-width="3" points="123.775,-512 127.775,-512 127.775,-508 123.775,-508 "/>
<text text-anchor="middle" x="166.775" y="-518.3" font-family="Times,serif" font-size="14.00">Real Garden</text>
</g>
<!-- Me or You -->
<g id="node2" class="node"><title>Me or You</title>
<ellipse fill="none" stroke="black" cx="166.775" cy="-450" rx="48.9926" ry="18"/>
<text text-anchor="middle" x="166.775" y="-446.3" font-family="Times,serif" font-size="14.00">Me or You</text>
</g>
<!-- Real Garden&#45;&gt;Me or You -->
<g id="edge1" class="edge"><title>Real Garden&#45;&gt;Me or You</title>
<path fill="none" stroke="grey" d="M166.775,-503.697C166.775,-495.983 166.775,-486.712 166.775,-478.112"/>
<polygon fill="grey" stroke="grey" points="170.275,-478.104 166.775,-468.104 163.275,-478.104 170.275,-478.104"/>
</g>
<!-- Set of *.csv Files -->
<g id="node3" class="node"><title>Set of *.csv Files</title>
<polygon fill="none" stroke="black" points="245.979,-373.995 230.292,-389.223 166.775,-396 103.258,-389.223 87.5709,-373.995 131.526,-361.783 202.024,-361.783 245.979,-373.995"/>
<text text-anchor="middle" x="166.775" y="-374.3" font-family="Times,serif" font-size="14.00">Set of *.csv Files</text>
</g>
<!-- Me or You&#45;&gt;Set of *.csv Files -->
<g id="edge2" class="edge"><title>Me or You&#45;&gt;Set of *.csv Files</title>
<path fill="none" stroke="grey" d="M166.775,-431.697C166.775,-423.983 166.775,-414.712 166.775,-406.112"/>
<polygon fill="grey" stroke="grey" points="170.275,-406.104 166.775,-396.104 163.275,-406.104 170.275,-406.104"/>
</g>
<!-- Import Code -->
<g id="node4" class="node"><title>Import Code</title>
<polygon fill="none" stroke="gold" points="174.275,-324 87.2751,-324 87.2751,-288 174.275,-288 174.275,-324"/>
<text text-anchor="middle" x="130.775" y="-302.3" font-family="Times,serif" font-size="14.00">Import Code</text>
</g>
<!-- Set of *.csv Files&#45;&gt;Import Code -->
<g id="edge3" class="edge"><title>Set of *.csv Files&#45;&gt;Import Code</title>
<path fill="none" stroke="grey" d="M158.786,-361.465C154.56,-353.248 149.255,-342.932 144.401,-333.495"/>
<polygon fill="grey" stroke="grey" points="147.441,-331.753 139.755,-324.461 141.216,-334.954 147.441,-331.753"/>
</g>
<!-- Database -->
<g id="node5" class="node"><title>Database</title>
<polygon fill="none" stroke="blue" points="157.775,-239.562 130.775,-252 103.775,-239.562 103.8,-219.438 157.75,-219.438 157.775,-239.562"/>
<text text-anchor="middle" x="130.775" y="-230.3" font-family="Times,serif" font-size="14.00">Database</text>
</g>
<!-- Import Code&#45;&gt;Database -->
<g id="edge4" class="edge"><title>Import Code&#45;&gt;Database</title>
<path fill="none" stroke="grey" d="M130.775,-287.697C130.775,-279.983 130.775,-270.712 130.775,-262.112"/>
<polygon fill="grey" stroke="grey" points="134.275,-262.104 130.775,-252.104 127.275,-262.104 134.275,-262.104"/>
</g>
<!-- Export Code -->
<g id="node6" class="node"><title>Export Code</title>
<polygon fill="none" stroke="gold" points="245.775,-180 159.775,-180 159.775,-144 245.775,-144 245.775,-180"/>
<text text-anchor="middle" x="202.775" y="-158.3" font-family="Times,serif" font-size="14.00">Export Code</text>
</g>
<!-- Database&#45;&gt;Export Code -->
<g id="edge5" class="edge"><title>Database&#45;&gt;Export Code</title>
<path fill="none" stroke="grey" d="M145,-219.17C154.39,-210.041 166.946,-197.834 177.954,-187.131"/>
<polygon fill="grey" stroke="grey" points="180.54,-189.499 185.27,-180.019 175.66,-184.48 180.54,-189.499"/>
</g>
<!-- CGI Script -->
<g id="node12" class="node"><title>CGI Script</title>
<polygon fill="none" stroke="purple" points="70.7751,-180 0.224179,-162 70.7751,-144 141.326,-162 70.7751,-180"/>
<polyline fill="none" stroke="purple" points="11.8517,-164.967 11.8517,-159.033 "/>
<polyline fill="none" stroke="purple" points="59.1476,-146.967 82.4026,-146.967 "/>
<polyline fill="none" stroke="purple" points="129.699,-159.033 129.699,-164.967 "/>
<polyline fill="none" stroke="purple" points="82.4026,-177.033 59.1476,-177.033 "/>
<text text-anchor="middle" x="70.7751" y="-158.3" font-family="Times,serif" font-size="14.00">CGI Script</text>
</g>
<!-- Database&#45;&gt;CGI Script -->
<g id="edge15" class="edge"><title>Database&#45;&gt;CGI Script</title>
<path fill="none" stroke="green" stroke-width="2" d="M110.974,-209.898C104.556,-202.411 97.4318,-194.099 90.9849,-186.578"/>
<polygon fill="none" stroke="green" stroke-width="2" points="111.112,-210.059 118.053,-212.012 118.921,-219.17 111.979,-217.218 111.112,-210.059"/>
<polygon fill="none" stroke="green" stroke-width="2" points="90.826,-186.393 83.8842,-184.44 83.0165,-177.282 89.9583,-179.234 90.826,-186.393"/>
</g>
<!-- Export Code&#45;&gt;Set of *.csv Files -->
<g id="edge7" class="edge"><title>Export Code&#45;&gt;Set of *.csv Files</title>
<path fill="none" stroke="grey" d="M201.61,-180.078C199.381,-209.649 193.73,-272.193 182.775,-324 180.831,-333.192 178.039,-343.092 175.33,-351.818"/>
<polygon fill="grey" stroke="grey" points="171.975,-350.82 172.243,-361.411 178.638,-352.964 171.975,-350.82"/>
</g>
<!-- Flower Catalog -->
<g id="node7" class="node"><title>Flower Catalog</title>
<ellipse fill="none" stroke="orange" cx="202.775" cy="-90" rx="65.7887" ry="18"/>
<text text-anchor="middle" x="202.775" y="-86.3" font-family="Times,serif" font-size="14.00">Flower Catalog</text>
</g>
<!-- Export Code&#45;&gt;Flower Catalog -->
<g id="edge6" class="edge"><title>Export Code&#45;&gt;Flower Catalog</title>
<path fill="none" stroke="grey" d="M202.775,-143.697C202.775,-135.983 202.775,-126.712 202.775,-118.112"/>
<polygon fill="grey" stroke="grey" points="206.275,-118.104 202.775,-108.104 199.275,-118.104 206.275,-118.104"/>
</g>
<!-- Front/Back Garden Layout -->
<g id="node8" class="node"><title>Front/Back Garden Layout</title>
<ellipse fill="none" stroke="orange" cx="394.775" cy="-90" rx="108.581" ry="18"/>
<text text-anchor="middle" x="394.775" y="-86.3" font-family="Times,serif" font-size="14.00">Front/Back Garden Layout</text>
</g>
<!-- Export Code&#45;&gt;Front/Back Garden Layout -->
<g id="edge8" class="edge"><title>Export Code&#45;&gt;Front/Back Garden Layout</title>
<path fill="none" stroke="grey" d="M245.864,-145.291C274.397,-134.888 311.998,-121.179 342.278,-110.14"/>
<polygon fill="grey" stroke="grey" points="343.634,-113.371 351.83,-106.657 341.236,-106.794 343.634,-113.371"/>
</g>
<!-- Flower 1.html -->
<g id="node9" class="node"><title>Flower 1.html</title>
<polygon fill="none" stroke="#8b1a1a" stroke-width="3" points="226.775,-36 118.775,-36 118.775,-0 226.775,-0 226.775,-36"/>
<text text-anchor="middle" x="172.775" y="-14.3" font-family="Times,serif" font-size="14.00">Flower 1.html</text>
</g>
<!-- Flower Catalog&#45;&gt;Flower 1.html -->
<g id="edge9" class="edge"><title>Flower Catalog&#45;&gt;Flower 1.html</title>
<path fill="none" stroke="grey" d="M195.513,-72.055C192.1,-64.0915 187.951,-54.4107 184.136,-45.5097"/>
<polygon fill="grey" stroke="grey" points="187.335,-44.088 180.179,-36.2753 180.901,-46.8455 187.335,-44.088"/>
</g>
<!-- Flower 2.html -->
<g id="node10" class="node"><title>Flower 2.html</title>
<polygon fill="none" stroke="#8b1a1a" stroke-width="3" points="352.775,-36 244.775,-36 244.775,-0 352.775,-0 352.775,-36"/>
<text text-anchor="middle" x="298.775" y="-14.3" font-family="Times,serif" font-size="14.00">Flower 2.html</text>
</g>
<!-- Flower Catalog&#45;&gt;Flower 2.html -->
<g id="edge10" class="edge"><title>Flower Catalog&#45;&gt;Flower 2.html</title>
<path fill="none" stroke="grey" d="M225.041,-72.7646C237.517,-63.6672 253.287,-52.1684 267.038,-42.1419"/>
<polygon fill="grey" stroke="grey" points="269.273,-44.8437 275.291,-36.1239 265.149,-39.1877 269.273,-44.8437"/>
</g>
<!-- Flower 999.html -->
<g id="node11" class="node"><title>Flower 999.html</title>
<polygon fill="none" stroke="#8b1a1a" stroke-width="3" points="478.775,-36 370.775,-36 370.775,-0 478.775,-0 478.775,-36"/>
<text text-anchor="middle" x="424.775" y="-14.3" font-family="Times,serif" font-size="14.00">Flower 999.html</text>
</g>
<!-- Flower Catalog&#45;&gt;Flower 999.html -->
<g id="edge11" class="edge"><title>Flower Catalog&#45;&gt;Flower 999.html</title>
<path fill="none" stroke="grey" d="M244.271,-75.9157C276.989,-65.5993 323.187,-51.0323 360.655,-39.2181"/>
<polygon fill="grey" stroke="grey" points="361.99,-42.4671 370.474,-36.1218 359.885,-35.7911 361.99,-42.4671"/>
</g>
<!-- Front/Back Garden Layout&#45;&gt;Flower 1.html -->
<g id="edge12" class="edge"><title>Front/Back Garden Layout&#45;&gt;Flower 1.html</title>
<path fill="none" stroke="grey" d="M346.604,-73.811C314.316,-63.63 271.452,-50.1143 236.368,-39.0519"/>
<polygon fill="grey" stroke="grey" points="237.284,-35.6709 226.694,-36.0016 235.179,-42.3468 237.284,-35.6709"/>
</g>
<!-- Front/Back Garden Layout&#45;&gt;Flower 2.html -->
<g id="edge13" class="edge"><title>Front/Back Garden Layout&#45;&gt;Flower 2.html</title>
<path fill="none" stroke="grey" d="M371.536,-72.055C359.129,-63.0078 343.682,-51.7443 330.216,-41.9257"/>
<polygon fill="grey" stroke="grey" points="332.275,-39.0953 322.133,-36.0316 328.151,-44.7514 332.275,-39.0953"/>
</g>
<!-- Front/Back Garden Layout&#45;&gt;Flower 999.html -->
<g id="edge14" class="edge"><title>Front/Back Garden Layout&#45;&gt;Flower 999.html</title>
<path fill="none" stroke="grey" d="M402.191,-71.6966C405.569,-63.8132 409.645,-54.3042 413.398,-45.5464"/>
<polygon fill="grey" stroke="grey" points="416.722,-46.6745 417.445,-36.1043 410.288,-43.9171 416.722,-46.6745"/>
</g>
<!-- You or Me -->
<g id="node13" class="node"><title>You or Me</title>
<ellipse fill="none" stroke="black" cx="70.7751" cy="-90" rx="48.9926" ry="18"/>
<text text-anchor="middle" x="70.7751" y="-86.3" font-family="Times,serif" font-size="14.00">You or Me</text>
</g>
<!-- CGI Script&#45;&gt;You or Me -->
<g id="edge16" class="edge"><title>CGI Script&#45;&gt;You or Me</title>
<path fill="none" stroke="green" stroke-width="2" d="M70.7751,-131.667C70.7751,-127.904 70.7751,-124.05 70.7751,-120.287"/>
<polygon fill="none" stroke="green" stroke-width="2" points="70.7752,-131.697 74.7752,-137.697 70.7751,-143.697 66.7752,-137.697 70.7752,-131.697"/>
<polygon fill="none" stroke="green" stroke-width="2" points="70.7752,-120.104 66.7752,-114.104 70.7751,-108.104 74.7752,-114.104 70.7752,-120.104"/>
</g>
</g>
</svg>
