<?xml version="1.0" encoding="UTF-8" standalone="no"?>
<!DOCTYPE svg PUBLIC "-//W3C//DTD SVG 1.1//EN"
 "http://www.w3.org/Graphics/SVG/1.1/DTD/svg11.dtd">
<!-- Generated by graphviz version 2.38.0 (20140413.2041)
 -->
<!-- Title: Perl Pages: 1 -->
<svg width="539pt" height="572pt"
 viewBox="0.00 0.00 538.70 571.65" xmlns="http://www.w3.org/2000/svg" xmlns:xlink="http://www.w3.org/1999/xlink">
<g id="graph0" class="graph" transform="scale(1 1) rotate(0) translate(4 567.647)">
<title>Perl</title>
<polygon fill="white" stroke="none" points="-4,4 -4,-567.647 534.699,-567.647 534.699,4 -4,4"/>
<!-- Real Garden -->
<g id="node1" class="node"><title>Real Garden</title>
<polygon fill="none" stroke="green" stroke-width="3" points="246.158,-563.647 160.158,-563.647 160.158,-559.647 156.158,-559.647 156.158,-555.647 160.158,-555.647 160.158,-535.647 156.158,-535.647 156.158,-531.647 160.158,-531.647 160.158,-527.647 246.158,-527.647 246.158,-563.647"/>
<polyline fill="none" stroke="green" stroke-width="3" points="160.158,-559.647 164.158,-559.647 164.158,-555.647 160.158,-555.647 "/>
<polyline fill="none" stroke="green" stroke-width="3" points="160.158,-535.647 164.158,-535.647 164.158,-531.647 160.158,-531.647 "/>
<text text-anchor="middle" x="203.158" y="-541.947" font-family="Times,serif" font-size="14.00">Real Garden</text>
</g>
<!-- Me or You -->
<g id="node2" class="node"><title>Me or You</title>
<ellipse fill="none" stroke="black" cx="203.158" cy="-473.647" rx="48.9926" ry="18"/>
<text text-anchor="middle" x="203.158" y="-469.947" font-family="Times,serif" font-size="14.00">Me or You</text>
</g>
<!-- Real Garden&#45;&gt;Me or You -->
<g id="edge1" class="edge"><title>Real Garden&#45;&gt;Me or You</title>
<path fill="none" stroke="grey" d="M203.158,-527.344C203.158,-519.63 203.158,-510.359 203.158,-501.759"/>
<polygon fill="grey" stroke="grey" points="206.658,-501.751 203.158,-491.751 199.658,-501.751 206.658,-501.751"/>
</g>
<!-- Set of *.csv Files\ndescribing the flowers -->
<g id="node3" class="node"><title>Set of *.csv Files\ndescribing the flowers</title>
<polygon fill="none" stroke="black" points="311.271,-383.226 289.858,-408.309 203.158,-419.472 116.458,-408.309 95.045,-383.226 155.043,-363.112 251.273,-363.112 311.271,-383.226"/>
<text text-anchor="middle" x="203.158" y="-393.624" font-family="Times,serif" font-size="14.00">Set of *.csv Files</text>
<text text-anchor="middle" x="203.158" y="-378.624" font-family="Times,serif" font-size="14.00">describing the flowers</text>
</g>
<!-- Me or You&#45;&gt;Set of *.csv Files\ndescribing the flowers -->
<g id="edge2" class="edge"><title>Me or You&#45;&gt;Set of *.csv Files\ndescribing the flowers</title>
<path fill="none" stroke="grey" d="M203.158,-455.294C203.158,-447.877 203.158,-438.891 203.158,-430.014"/>
<polygon fill="grey" stroke="grey" points="206.658,-429.743 203.158,-419.743 199.658,-429.743 206.658,-429.743"/>
</g>
<!-- Import Code -->
<g id="node4" class="node"><title>Import Code</title>
<polygon fill="none" stroke="gold" points="210.658,-324 123.658,-324 123.658,-288 210.658,-288 210.658,-324"/>
<text text-anchor="middle" x="167.158" y="-302.3" font-family="Times,serif" font-size="14.00">Import Code</text>
</g>
<!-- Set of *.csv Files\ndescribing the flowers&#45;&gt;Import Code -->
<g id="edge3" class="edge"><title>Set of *.csv Files\ndescribing the flowers&#45;&gt;Import Code</title>
<path fill="none" stroke="grey" d="M191.768,-362.934C187.64,-353.552 182.973,-342.946 178.822,-333.511"/>
<polygon fill="grey" stroke="grey" points="181.958,-331.946 174.727,-324.203 175.551,-334.766 181.958,-331.946"/>
</g>
<!-- Database -->
<g id="node5" class="node"><title>Database</title>
<polygon fill="none" stroke="blue" points="194.158,-239.562 167.158,-252 140.158,-239.562 140.183,-219.438 194.133,-219.438 194.158,-239.562"/>
<text text-anchor="middle" x="167.158" y="-230.3" font-family="Times,serif" font-size="14.00">Database</text>
</g>
<!-- Import Code&#45;&gt;Database -->
<g id="edge4" class="edge"><title>Import Code&#45;&gt;Database</title>
<path fill="none" stroke="grey" d="M167.158,-287.697C167.158,-279.983 167.158,-270.712 167.158,-262.112"/>
<polygon fill="grey" stroke="grey" points="170.658,-262.104 167.158,-252.104 163.658,-262.104 170.658,-262.104"/>
</g>
<!-- Export Code -->
<g id="node6" class="node"><title>Export Code</title>
<polygon fill="none" stroke="gold" points="282.158,-180 196.158,-180 196.158,-144 282.158,-144 282.158,-180"/>
<text text-anchor="middle" x="239.158" y="-158.3" font-family="Times,serif" font-size="14.00">Export Code</text>
</g>
<!-- Database&#45;&gt;Export Code -->
<g id="edge5" class="edge"><title>Database&#45;&gt;Export Code</title>
<path fill="none" stroke="grey" d="M181.383,-219.17C190.773,-210.041 203.329,-197.834 214.337,-187.131"/>
<polygon fill="grey" stroke="grey" points="216.923,-189.499 221.653,-180.019 212.043,-184.48 216.923,-189.499"/>
</g>
<!-- Search Engine -->
<g id="node12" class="node"><title>Search Engine</title>
<polygon fill="none" stroke="purple" points="89.1583,-180 -0.158535,-162 89.1583,-144 178.475,-162 89.1583,-180"/>
<polyline fill="none" stroke="purple" points="11.605,-164.371 11.605,-159.629 "/>
<polyline fill="none" stroke="purple" points="77.3948,-146.371 100.922,-146.371 "/>
<polyline fill="none" stroke="purple" points="166.712,-159.629 166.712,-164.371 "/>
<polyline fill="none" stroke="purple" points="100.922,-177.629 77.3948,-177.629 "/>
<text text-anchor="middle" x="89.1583" y="-158.3" font-family="Times,serif" font-size="14.00">Search Engine</text>
</g>
<!-- Database&#45;&gt;Search Engine -->
<g id="edge15" class="edge"><title>Database&#45;&gt;Search Engine</title>
<path fill="none" stroke="green" stroke-width="2" d="M142.814,-211.153C133.606,-202.889 123.122,-193.481 113.88,-185.186"/>
<polygon fill="none" stroke="green" stroke-width="2" points="142.817,-211.155 149.954,-212.186 151.748,-219.17 144.611,-218.14 142.817,-211.155"/>
<polygon fill="none" stroke="green" stroke-width="2" points="113.734,-185.056 106.597,-184.025 104.804,-177.041 111.941,-178.071 113.734,-185.056"/>
</g>
<!-- Export Code&#45;&gt;Set of *.csv Files\ndescribing the flowers -->
<g id="edge7" class="edge"><title>Export Code&#45;&gt;Set of *.csv Files\ndescribing the flowers</title>
<path fill="none" stroke="grey" d="M237.712,-180.022C235.058,-209.509 228.784,-271.93 219.158,-324 217.394,-333.543 215.073,-343.777 212.747,-353.229"/>
<polygon fill="grey" stroke="grey" points="209.307,-352.557 210.248,-363.11 216.094,-354.273 209.307,-352.557"/>
</g>
<!-- Flower Catalog -->
<g id="node7" class="node"><title>Flower Catalog</title>
<ellipse fill="none" stroke="orange" cx="230.158" cy="-90" rx="65.7887" ry="18"/>
<text text-anchor="middle" x="230.158" y="-86.3" font-family="Times,serif" font-size="14.00">Flower Catalog</text>
</g>
<!-- Export Code&#45;&gt;Flower Catalog -->
<g id="edge6" class="edge"><title>Export Code&#45;&gt;Flower Catalog</title>
<path fill="none" stroke="grey" d="M236.934,-143.697C235.942,-135.983 234.75,-126.712 233.644,-118.112"/>
<polygon fill="grey" stroke="grey" points="237.104,-117.576 232.357,-108.104 230.161,-118.469 237.104,-117.576"/>
</g>
<!-- Front/Back Garden Layout -->
<g id="node8" class="node"><title>Front/Back Garden Layout</title>
<ellipse fill="none" stroke="orange" cx="422.158" cy="-90" rx="108.581" ry="18"/>
<text text-anchor="middle" x="422.158" y="-86.3" font-family="Times,serif" font-size="14.00">Front/Back Garden Layout</text>
</g>
<!-- Export Code&#45;&gt;Front/Back Garden Layout -->
<g id="edge8" class="edge"><title>Export Code&#45;&gt;Front/Back Garden Layout</title>
<path fill="none" stroke="grey" d="M282.527,-144.411C309.189,-134.212 343.473,-121.098 371.397,-110.417"/>
<polygon fill="grey" stroke="grey" points="372.897,-113.591 380.986,-106.749 370.396,-107.053 372.897,-113.591"/>
</g>
<!-- Flower 1.html -->
<g id="node9" class="node"><title>Flower 1.html</title>
<polygon fill="none" stroke="#8b1a1a" stroke-width="3" points="254.158,-36 146.158,-36 146.158,-0 254.158,-0 254.158,-36"/>
<text text-anchor="middle" x="200.158" y="-14.3" font-family="Times,serif" font-size="14.00">Flower 1.html</text>
</g>
<!-- Flower Catalog&#45;&gt;Flower 1.html -->
<g id="edge9" class="edge"><title>Flower Catalog&#45;&gt;Flower 1.html</title>
<path fill="none" stroke="grey" d="M222.896,-72.055C219.483,-64.0915 215.334,-54.4107 211.52,-45.5097"/>
<polygon fill="grey" stroke="grey" points="214.718,-44.088 207.562,-36.2753 208.284,-46.8455 214.718,-44.088"/>
</g>
<!-- Flower 2.html -->
<g id="node10" class="node"><title>Flower 2.html</title>
<polygon fill="none" stroke="#8b1a1a" stroke-width="3" points="380.158,-36 272.158,-36 272.158,-0 380.158,-0 380.158,-36"/>
<text text-anchor="middle" x="326.158" y="-14.3" font-family="Times,serif" font-size="14.00">Flower 2.html</text>
</g>
<!-- Flower Catalog&#45;&gt;Flower 2.html -->
<g id="edge10" class="edge"><title>Flower Catalog&#45;&gt;Flower 2.html</title>
<path fill="none" stroke="grey" d="M252.424,-72.7646C264.9,-63.6672 280.67,-52.1684 294.421,-42.1419"/>
<polygon fill="grey" stroke="grey" points="296.656,-44.8437 302.674,-36.1239 292.532,-39.1877 296.656,-44.8437"/>
</g>
<!-- Flower 999.html -->
<g id="node11" class="node"><title>Flower 999.html</title>
<polygon fill="none" stroke="#8b1a1a" stroke-width="3" points="506.158,-36 398.158,-36 398.158,-0 506.158,-0 506.158,-36"/>
<text text-anchor="middle" x="452.158" y="-14.3" font-family="Times,serif" font-size="14.00">Flower 999.html</text>
</g>
<!-- Flower Catalog&#45;&gt;Flower 999.html -->
<g id="edge11" class="edge"><title>Flower Catalog&#45;&gt;Flower 999.html</title>
<path fill="none" stroke="grey" d="M271.654,-75.9157C304.372,-65.5993 350.57,-51.0323 388.038,-39.2181"/>
<polygon fill="grey" stroke="grey" points="389.373,-42.4671 397.858,-36.1218 387.268,-35.7911 389.373,-42.4671"/>
</g>
<!-- Front/Back Garden Layout&#45;&gt;Flower 1.html -->
<g id="edge12" class="edge"><title>Front/Back Garden Layout&#45;&gt;Flower 1.html</title>
<path fill="none" stroke="grey" d="M373.988,-73.811C341.699,-63.63 298.835,-50.1143 263.751,-39.0519"/>
<polygon fill="grey" stroke="grey" points="264.667,-35.6709 254.078,-36.0016 262.562,-42.3468 264.667,-35.6709"/>
</g>
<!-- Front/Back Garden Layout&#45;&gt;Flower 2.html -->
<g id="edge13" class="edge"><title>Front/Back Garden Layout&#45;&gt;Flower 2.html</title>
<path fill="none" stroke="grey" d="M398.919,-72.055C386.512,-63.0078 371.065,-51.7443 357.599,-41.9257"/>
<polygon fill="grey" stroke="grey" points="359.658,-39.0953 349.516,-36.0316 355.534,-44.7514 359.658,-39.0953"/>
</g>
<!-- Front/Back Garden Layout&#45;&gt;Flower 999.html -->
<g id="edge14" class="edge"><title>Front/Back Garden Layout&#45;&gt;Flower 999.html</title>
<path fill="none" stroke="grey" d="M429.574,-71.6966C432.953,-63.8132 437.028,-54.3042 440.781,-45.5464"/>
<polygon fill="grey" stroke="grey" points="444.106,-46.6745 444.828,-36.1043 437.672,-43.9171 444.106,-46.6745"/>
</g>
<!-- You or Me -->
<g id="node13" class="node"><title>You or Me</title>
<ellipse fill="none" stroke="black" cx="89.1583" cy="-90" rx="48.9926" ry="18"/>
<text text-anchor="middle" x="89.1583" y="-86.3" font-family="Times,serif" font-size="14.00">You or Me</text>
</g>
<!-- Search Engine&#45;&gt;You or Me -->
<g id="edge16" class="edge"><title>Search Engine&#45;&gt;You or Me</title>
<path fill="none" stroke="green" stroke-width="2" d="M89.1583,-131.667C89.1583,-127.904 89.1583,-124.05 89.1583,-120.287"/>
<polygon fill="none" stroke="green" stroke-width="2" points="89.1584,-131.697 93.1583,-137.697 89.1583,-143.697 85.1583,-137.697 89.1584,-131.697"/>
<polygon fill="none" stroke="green" stroke-width="2" points="89.1584,-120.104 85.1583,-114.104 89.1583,-108.104 93.1583,-114.104 89.1584,-120.104"/>
</g>
</g>
</svg>
