<?xml version="1.0" encoding="UTF-8" standalone="no"?>
<!DOCTYPE svg PUBLIC "-//W3C//DTD SVG 1.1//EN"
 "http://www.w3.org/Graphics/SVG/1.1/DTD/svg11.dtd">
<!-- Generated by graphviz version 2.38.0 (20140413.2041)
 -->
<!-- Title: Perl Pages: 1 -->
<svg width="1223pt" height="533pt"
 viewBox="0.00 0.00 1222.50 532.82" xmlns="http://www.w3.org/2000/svg" xmlns:xlink="http://www.w3.org/1999/xlink">
<g id="graph0" class="graph" transform="scale(1 1) rotate(0) translate(4 528.822)">
<title>Perl</title>
<polygon fill="white" stroke="none" points="-4,4 -4,-528.822 1218.5,-528.822 1218.5,4 -4,4"/>
<!-- attribute_types -->
<g id="node1" class="node"><title>attribute_types</title>
<path fill="none" stroke="blue" d="M144.5,-187C144.5,-187 300.5,-187 300.5,-187 306.5,-187 312.5,-193 312.5,-199 312.5,-199 312.5,-267 312.5,-267 312.5,-273 306.5,-279 300.5,-279 300.5,-279 144.5,-279 144.5,-279 138.5,-279 132.5,-273 132.5,-267 132.5,-267 132.5,-199 132.5,-199 132.5,-193 138.5,-187 144.5,-187"/>
<text text-anchor="middle" x="182.5" y="-229.3" font-family="Times,serif" font-size="14.00">attribute_types</text>
<polyline fill="none" stroke="blue" points="232.5,-187 232.5,-279 "/>
<text text-anchor="middle" x="272.5" y="-263.8" font-family="Times,serif" font-size="14.00">1: id</text>
<polyline fill="none" stroke="blue" points="232.5,-256 312.5,-256 "/>
<text text-anchor="middle" x="272.5" y="-240.8" font-family="Times,serif" font-size="14.00">2: name</text>
<polyline fill="none" stroke="blue" points="232.5,-233 312.5,-233 "/>
<text text-anchor="middle" x="272.5" y="-217.8" font-family="Times,serif" font-size="14.00">3: range</text>
<polyline fill="none" stroke="blue" points="232.5,-210 312.5,-210 "/>
<text text-anchor="middle" x="272.5" y="-194.8" font-family="Times,serif" font-size="14.00">4: sequence</text>
</g>
<!-- attributes -->
<g id="node2" class="node"><title>attributes</title>
<path fill="none" stroke="blue" d="M12,-408C12,-408 183,-408 183,-408 189,-408 195,-414 195,-420 195,-420 195,-488 195,-488 195,-494 189,-500 183,-500 183,-500 12,-500 12,-500 6,-500 0,-494 0,-488 0,-488 0,-420 0,-420 0,-414 6,-408 12,-408"/>
<text text-anchor="middle" x="35" y="-450.3" font-family="Times,serif" font-size="14.00">attributes</text>
<polyline fill="none" stroke="blue" points="70,-408 70,-500 "/>
<text text-anchor="middle" x="132.5" y="-484.8" font-family="Times,serif" font-size="14.00">1: attribute_type_id</text>
<polyline fill="none" stroke="blue" points="70,-477 195,-477 "/>
<text text-anchor="middle" x="132.5" y="-461.8" font-family="Times,serif" font-size="14.00">2: flower_id</text>
<polyline fill="none" stroke="blue" points="70,-454 195,-454 "/>
<text text-anchor="middle" x="132.5" y="-438.8" font-family="Times,serif" font-size="14.00">3: id</text>
<polyline fill="none" stroke="blue" points="70,-431 195,-431 "/>
<text text-anchor="middle" x="132.5" y="-415.8" font-family="Times,serif" font-size="14.00">4: range</text>
</g>
<!-- attributes&#45;&gt;attribute_types -->
<g id="edge1" class="edge"><title>attributes:port1&#45;&gt;attribute_types:port0:w</title>
<path fill="none" stroke="grey" d="M196.5,-489C205.556,-489 197.607,-416.308 195.5,-407.5 180.747,-345.834 147.537,-341.097 132.5,-279.5 128.823,-264.439 118.471,-245.813 122.246,-237.442"/>
<polygon fill="grey" stroke="grey" points="123.999,-240.483 131.5,-233 120.97,-234.172 123.999,-240.483"/>
</g>
<!-- flowers -->
<g id="node5" class="node"><title>flowers</title>
<path fill="none" stroke="blue" d="M478.5,-106.5C478.5,-106.5 636.5,-106.5 636.5,-106.5 642.5,-106.5 648.5,-112.5 648.5,-118.5 648.5,-118.5 648.5,-347.5 648.5,-347.5 648.5,-353.5 642.5,-359.5 636.5,-359.5 636.5,-359.5 478.5,-359.5 478.5,-359.5 472.5,-359.5 466.5,-353.5 466.5,-347.5 466.5,-347.5 466.5,-118.5 466.5,-118.5 466.5,-112.5 472.5,-106.5 478.5,-106.5"/>
<text text-anchor="middle" x="495" y="-229.3" font-family="Times,serif" font-size="14.00">flowers</text>
<polyline fill="none" stroke="blue" points="523.5,-106.5 523.5,-359.5 "/>
<text text-anchor="middle" x="586" y="-344.3" font-family="Times,serif" font-size="14.00">1: aliases</text>
<polyline fill="none" stroke="blue" points="523.5,-336.5 648.5,-336.5 "/>
<text text-anchor="middle" x="586" y="-321.3" font-family="Times,serif" font-size="14.00">2: common_name</text>
<polyline fill="none" stroke="blue" points="523.5,-313.5 648.5,-313.5 "/>
<text text-anchor="middle" x="586" y="-298.3" font-family="Times,serif" font-size="14.00">3: height</text>
<polyline fill="none" stroke="blue" points="523.5,-290.5 648.5,-290.5 "/>
<text text-anchor="middle" x="586" y="-275.3" font-family="Times,serif" font-size="14.00">4: id</text>
<polyline fill="none" stroke="blue" points="523.5,-267.5 648.5,-267.5 "/>
<text text-anchor="middle" x="586" y="-252.3" font-family="Times,serif" font-size="14.00">5: max_height</text>
<polyline fill="none" stroke="blue" points="523.5,-244.5 648.5,-244.5 "/>
<text text-anchor="middle" x="586" y="-229.3" font-family="Times,serif" font-size="14.00">6: max_width</text>
<polyline fill="none" stroke="blue" points="523.5,-221.5 648.5,-221.5 "/>
<text text-anchor="middle" x="586" y="-206.3" font-family="Times,serif" font-size="14.00">7: min_height</text>
<polyline fill="none" stroke="blue" points="523.5,-198.5 648.5,-198.5 "/>
<text text-anchor="middle" x="586" y="-183.3" font-family="Times,serif" font-size="14.00">8: min_width</text>
<polyline fill="none" stroke="blue" points="523.5,-175.5 648.5,-175.5 "/>
<text text-anchor="middle" x="586" y="-160.3" font-family="Times,serif" font-size="14.00">9: pig_latin</text>
<polyline fill="none" stroke="blue" points="523.5,-152.5 648.5,-152.5 "/>
<text text-anchor="middle" x="586" y="-137.3" font-family="Times,serif" font-size="14.00">10: scientific_name</text>
<polyline fill="none" stroke="blue" points="523.5,-129.5 648.5,-129.5 "/>
<text text-anchor="middle" x="586" y="-114.3" font-family="Times,serif" font-size="14.00">11: width</text>
</g>
<!-- attributes&#45;&gt;flowers -->
<g id="edge2" class="edge"><title>attributes:port2&#45;&gt;flowers:port0:w</title>
<path fill="none" stroke="grey" d="M196.5,-466C212.133,-466 193.583,-408.085 203.5,-396 238.282,-353.614 273.632,-386.74 321.5,-360 392.943,-320.091 381.312,-239.931 455.497,-233.422"/>
<polygon fill="grey" stroke="grey" points="455.656,-236.919 465.5,-233 455.361,-229.925 455.656,-236.919"/>
</g>
<!-- constants -->
<g id="node3" class="node"><title>constants</title>
<path fill="none" stroke="blue" d="M1096.5,-419.5C1096.5,-419.5 1202.5,-419.5 1202.5,-419.5 1208.5,-419.5 1214.5,-425.5 1214.5,-431.5 1214.5,-431.5 1214.5,-476.5 1214.5,-476.5 1214.5,-482.5 1208.5,-488.5 1202.5,-488.5 1202.5,-488.5 1096.5,-488.5 1096.5,-488.5 1090.5,-488.5 1084.5,-482.5 1084.5,-476.5 1084.5,-476.5 1084.5,-431.5 1084.5,-431.5 1084.5,-425.5 1090.5,-419.5 1096.5,-419.5"/>
<text text-anchor="middle" x="1119.5" y="-450.3" font-family="Times,serif" font-size="14.00">constants</text>
<polyline fill="none" stroke="blue" points="1154.5,-419.5 1154.5,-488.5 "/>
<text text-anchor="middle" x="1184.5" y="-473.3" font-family="Times,serif" font-size="14.00">1: id</text>
<polyline fill="none" stroke="blue" points="1154.5,-465.5 1214.5,-465.5 "/>
<text text-anchor="middle" x="1184.5" y="-450.3" font-family="Times,serif" font-size="14.00">2: name</text>
<polyline fill="none" stroke="blue" points="1154.5,-442.5 1214.5,-442.5 "/>
<text text-anchor="middle" x="1184.5" y="-427.3" font-family="Times,serif" font-size="14.00">3: value</text>
</g>
<!-- flower_locations -->
<g id="node4" class="node"><title>flower_locations</title>
<path fill="none" stroke="blue" d="M676,-396.5C676,-396.5 845,-396.5 845,-396.5 851,-396.5 857,-402.5 857,-408.5 857,-408.5 857,-499.5 857,-499.5 857,-505.5 851,-511.5 845,-511.5 845,-511.5 676,-511.5 676,-511.5 670,-511.5 664,-505.5 664,-499.5 664,-499.5 664,-408.5 664,-408.5 664,-402.5 670,-396.5 676,-396.5"/>
<text text-anchor="middle" x="718.5" y="-450.3" font-family="Times,serif" font-size="14.00">flower_locations</text>
<polyline fill="none" stroke="blue" points="773,-396.5 773,-511.5 "/>
<text text-anchor="middle" x="815" y="-496.3" font-family="Times,serif" font-size="14.00">1: flower_id</text>
<polyline fill="none" stroke="blue" points="773,-488.5 857,-488.5 "/>
<text text-anchor="middle" x="815" y="-473.3" font-family="Times,serif" font-size="14.00">2: garden_id</text>
<polyline fill="none" stroke="blue" points="773,-465.5 857,-465.5 "/>
<text text-anchor="middle" x="815" y="-450.3" font-family="Times,serif" font-size="14.00">3: id</text>
<polyline fill="none" stroke="blue" points="773,-442.5 857,-442.5 "/>
<text text-anchor="middle" x="815" y="-427.3" font-family="Times,serif" font-size="14.00">4: x</text>
<polyline fill="none" stroke="blue" points="773,-419.5 857,-419.5 "/>
<text text-anchor="middle" x="815" y="-404.3" font-family="Times,serif" font-size="14.00">5: y</text>
</g>
<!-- flower_locations&#45;&gt;flowers -->
<g id="edge3" class="edge"><title>flower_locations:port1&#45;&gt;flowers:port0:w</title>
<path fill="none" stroke="grey" d="M815.5,-513C815.5,-531.45 844.112,-525.202 857,-512 866.003,-502.777 865.685,-405.523 857,-396 798.275,-331.612 525.478,-424.156 466.5,-360 430.761,-321.123 411.613,-243.832 455.514,-234.03"/>
<polygon fill="grey" stroke="grey" points="455.912,-237.508 465.5,-233 455.194,-230.545 455.912,-237.508"/>
</g>
<!-- gardens -->
<g id="node6" class="node"><title>gardens</title>
<path fill="none" stroke="blue" d="M847,-187C847,-187 976,-187 976,-187 982,-187 988,-193 988,-199 988,-199 988,-267 988,-267 988,-273 982,-279 976,-279 976,-279 847,-279 847,-279 841,-279 835,-273 835,-267 835,-267 835,-199 835,-199 835,-193 841,-187 847,-187"/>
<text text-anchor="middle" x="864.5" y="-229.3" font-family="Times,serif" font-size="14.00">gardens</text>
<polyline fill="none" stroke="blue" points="894,-187 894,-279 "/>
<text text-anchor="middle" x="941" y="-263.8" font-family="Times,serif" font-size="14.00">1: description</text>
<polyline fill="none" stroke="blue" points="894,-256 988,-256 "/>
<text text-anchor="middle" x="941" y="-240.8" font-family="Times,serif" font-size="14.00">2: id</text>
<polyline fill="none" stroke="blue" points="894,-233 988,-233 "/>
<text text-anchor="middle" x="941" y="-217.8" font-family="Times,serif" font-size="14.00">3: name</text>
<polyline fill="none" stroke="blue" points="894,-210 988,-210 "/>
<text text-anchor="middle" x="941" y="-194.8" font-family="Times,serif" font-size="14.00">4: property_id</text>
</g>
<!-- flower_locations&#45;&gt;gardens -->
<g id="edge7" class="edge"><title>flower_locations:port2&#45;&gt;gardens:port0:w</title>
<path fill="none" stroke="grey" d="M858.5,-477C867.501,-477 858.431,-404.952 857.5,-396 852.04,-343.506 840.2,-331.968 834.5,-279.5 832.843,-264.248 821.708,-246.021 824.528,-237.637"/>
<polygon fill="grey" stroke="grey" points="826.223,-240.701 833.5,-233 823.009,-234.482 826.223,-240.701"/>
</g>
<!-- properties -->
<g id="node11" class="node"><title>properties</title>
<path fill="none" stroke="blue" d="M954,-0.5C954,-0.5 1095,-0.5 1095,-0.5 1101,-0.5 1107,-6.5 1107,-12.5 1107,-12.5 1107,-57.5 1107,-57.5 1107,-63.5 1101,-69.5 1095,-69.5 1095,-69.5 954,-69.5 954,-69.5 948,-69.5 942,-63.5 942,-57.5 942,-57.5 942,-12.5 942,-12.5 942,-6.5 948,-0.5 954,-0.5"/>
<text text-anchor="middle" x="978.5" y="-31.3" font-family="Times,serif" font-size="14.00">properties</text>
<polyline fill="none" stroke="blue" points="1015,-0.5 1015,-69.5 "/>
<text text-anchor="middle" x="1061" y="-54.3" font-family="Times,serif" font-size="14.00">1: description</text>
<polyline fill="none" stroke="blue" points="1015,-46.5 1107,-46.5 "/>
<text text-anchor="middle" x="1061" y="-31.3" font-family="Times,serif" font-size="14.00">2: id</text>
<polyline fill="none" stroke="blue" points="1015,-23.5 1107,-23.5 "/>
<text text-anchor="middle" x="1061" y="-8.3" font-family="Times,serif" font-size="14.00">3: name</text>
</g>
<!-- gardens&#45;&gt;properties -->
<g id="edge10" class="edge"><title>gardens:port4&#45;&gt;properties:port0:w</title>
<path fill="none" stroke="grey" d="M989.5,-198C1061.01,-198 885.935,-52.3406 930.475,-36.4091"/>
<polygon fill="grey" stroke="grey" points="931.085,-39.8579 940.5,-35 930.11,-32.9261 931.085,-39.8579"/>
</g>
<!-- images -->
<g id="node7" class="node"><title>images</title>
<path fill="none" stroke="blue" d="M225,-396.5C225,-396.5 348,-396.5 348,-396.5 354,-396.5 360,-402.5 360,-408.5 360,-408.5 360,-499.5 360,-499.5 360,-505.5 354,-511.5 348,-511.5 348,-511.5 225,-511.5 225,-511.5 219,-511.5 213,-505.5 213,-499.5 213,-499.5 213,-408.5 213,-408.5 213,-402.5 219,-396.5 225,-396.5"/>
<text text-anchor="middle" x="240.5" y="-450.3" font-family="Times,serif" font-size="14.00">images</text>
<polyline fill="none" stroke="blue" points="268,-396.5 268,-511.5 "/>
<text text-anchor="middle" x="314" y="-496.3" font-family="Times,serif" font-size="14.00">1: description</text>
<polyline fill="none" stroke="blue" points="268,-488.5 360,-488.5 "/>
<text text-anchor="middle" x="314" y="-473.3" font-family="Times,serif" font-size="14.00">2: file_name</text>
<polyline fill="none" stroke="blue" points="268,-465.5 360,-465.5 "/>
<text text-anchor="middle" x="314" y="-450.3" font-family="Times,serif" font-size="14.00">3: flower_id</text>
<polyline fill="none" stroke="blue" points="268,-442.5 360,-442.5 "/>
<text text-anchor="middle" x="314" y="-427.3" font-family="Times,serif" font-size="14.00">4: id</text>
<polyline fill="none" stroke="blue" points="268,-419.5 360,-419.5 "/>
<text text-anchor="middle" x="314" y="-404.3" font-family="Times,serif" font-size="14.00">5: sequence</text>
</g>
<!-- images&#45;&gt;flowers -->
<g id="edge4" class="edge"><title>images:port3&#45;&gt;flowers:port0:w</title>
<path fill="none" stroke="grey" d="M361.5,-454C374.482,-454 364.312,-408.288 368.5,-396 394.526,-319.634 382.367,-240.144 455.169,-233.454"/>
<polygon fill="grey" stroke="grey" points="455.663,-236.936 465.5,-233 455.356,-229.942 455.663,-236.936"/>
</g>
<!-- notes -->
<g id="node8" class="node"><title>notes</title>
<path fill="none" stroke="blue" d="M390,-408C390,-408 495,-408 495,-408 501,-408 507,-414 507,-420 507,-420 507,-488 507,-488 507,-494 501,-500 495,-500 495,-500 390,-500 390,-500 384,-500 378,-494 378,-488 378,-488 378,-420 378,-420 378,-414 384,-408 390,-408"/>
<text text-anchor="middle" x="401.5" y="-450.3" font-family="Times,serif" font-size="14.00">notes</text>
<polyline fill="none" stroke="blue" points="425,-408 425,-500 "/>
<text text-anchor="middle" x="466" y="-484.8" font-family="Times,serif" font-size="14.00">1: flower_id</text>
<polyline fill="none" stroke="blue" points="425,-477 507,-477 "/>
<text text-anchor="middle" x="466" y="-461.8" font-family="Times,serif" font-size="14.00">2: id</text>
<polyline fill="none" stroke="blue" points="425,-454 507,-454 "/>
<text text-anchor="middle" x="466" y="-438.8" font-family="Times,serif" font-size="14.00">3: note</text>
<polyline fill="none" stroke="blue" points="425,-431 507,-431 "/>
<text text-anchor="middle" x="466" y="-415.8" font-family="Times,serif" font-size="14.00">4: sequence</text>
</g>
<!-- notes&#45;&gt;flowers -->
<g id="edge5" class="edge"><title>notes:port1&#45;&gt;flowers:port0:w</title>
<path fill="none" stroke="grey" d="M508.5,-489C517.556,-489 510.709,-415.969 507.5,-407.5 497.619,-381.421 476.324,-386.1 466.5,-360 447.937,-310.68 413.965,-242.757 455.466,-233.953"/>
<polygon fill="grey" stroke="grey" points="455.876,-237.43 465.5,-233 455.214,-230.462 455.876,-237.43"/>
</g>
<!-- object_locations -->
<g id="node9" class="node"><title>object_locations</title>
<path fill="none" stroke="blue" d="M887,-396.5C887,-396.5 1054,-396.5 1054,-396.5 1060,-396.5 1066,-402.5 1066,-408.5 1066,-408.5 1066,-499.5 1066,-499.5 1066,-505.5 1060,-511.5 1054,-511.5 1054,-511.5 887,-511.5 887,-511.5 881,-511.5 875,-505.5 875,-499.5 875,-499.5 875,-408.5 875,-408.5 875,-402.5 881,-396.5 887,-396.5"/>
<text text-anchor="middle" x="928.5" y="-450.3" font-family="Times,serif" font-size="14.00">object_locations</text>
<polyline fill="none" stroke="blue" points="982,-396.5 982,-511.5 "/>
<text text-anchor="middle" x="1024" y="-496.3" font-family="Times,serif" font-size="14.00">1: garden_id</text>
<polyline fill="none" stroke="blue" points="982,-488.5 1066,-488.5 "/>
<text text-anchor="middle" x="1024" y="-473.3" font-family="Times,serif" font-size="14.00">2: id</text>
<polyline fill="none" stroke="blue" points="982,-465.5 1066,-465.5 "/>
<text text-anchor="middle" x="1024" y="-450.3" font-family="Times,serif" font-size="14.00">3: object_id</text>
<polyline fill="none" stroke="blue" points="982,-442.5 1066,-442.5 "/>
<text text-anchor="middle" x="1024" y="-427.3" font-family="Times,serif" font-size="14.00">4: x</text>
<polyline fill="none" stroke="blue" points="982,-419.5 1066,-419.5 "/>
<text text-anchor="middle" x="1024" y="-404.3" font-family="Times,serif" font-size="14.00">5: y</text>
</g>
<!-- object_locations&#45;&gt;gardens -->
<g id="edge8" class="edge"><title>object_locations:port1&#45;&gt;gardens:port0:w</title>
<path fill="none" stroke="grey" d="M1024.5,-513C1024.5,-531.45 1053.11,-525.202 1066,-512 1075,-502.777 1072.76,-406.973 1066,-396 1035.79,-346.971 865.24,-328.202 834.5,-279.5 825.88,-265.843 817.502,-245.144 824.105,-236.741"/>
<polygon fill="grey" stroke="grey" points="825.505,-239.952 833.5,-233 822.915,-233.448 825.505,-239.952"/>
</g>
<!-- objects -->
<g id="node10" class="node"><title>objects</title>
<path fill="none" stroke="blue" d="M1037,-198.5C1037,-198.5 1154,-198.5 1154,-198.5 1160,-198.5 1166,-204.5 1166,-210.5 1166,-210.5 1166,-255.5 1166,-255.5 1166,-261.5 1160,-267.5 1154,-267.5 1154,-267.5 1037,-267.5 1037,-267.5 1031,-267.5 1025,-261.5 1025,-255.5 1025,-255.5 1025,-210.5 1025,-210.5 1025,-204.5 1031,-198.5 1037,-198.5"/>
<text text-anchor="middle" x="1053" y="-229.3" font-family="Times,serif" font-size="14.00">objects</text>
<polyline fill="none" stroke="blue" points="1081,-198.5 1081,-267.5 "/>
<text text-anchor="middle" x="1123.5" y="-252.3" font-family="Times,serif" font-size="14.00">1: hex_color</text>
<polyline fill="none" stroke="blue" points="1081,-244.5 1166,-244.5 "/>
<text text-anchor="middle" x="1123.5" y="-229.3" font-family="Times,serif" font-size="14.00">2: id</text>
<polyline fill="none" stroke="blue" points="1081,-221.5 1166,-221.5 "/>
<text text-anchor="middle" x="1123.5" y="-206.3" font-family="Times,serif" font-size="14.00">3: name</text>
</g>
<!-- object_locations&#45;&gt;objects -->
<g id="edge9" class="edge"><title>object_locations:port3&#45;&gt;objects:port0:w</title>
<path fill="none" stroke="grey" d="M1067.5,-454C1080.39,-454 1068.64,-408.711 1066.5,-396 1061,-363.389 1002.5,-261.322 1014.64,-237.847"/>
<polygon fill="grey" stroke="grey" points="1016.41,-240.871 1023.5,-233 1013.05,-234.73 1016.41,-240.871"/>
</g>
<!-- urls -->
<g id="node12" class="node"><title>urls</title>
<path fill="none" stroke="blue" d="M537.5,-408C537.5,-408 633.5,-408 633.5,-408 639.5,-408 645.5,-414 645.5,-420 645.5,-420 645.5,-488 645.5,-488 645.5,-494 639.5,-500 633.5,-500 633.5,-500 537.5,-500 537.5,-500 531.5,-500 525.5,-494 525.5,-488 525.5,-488 525.5,-420 525.5,-420 525.5,-414 531.5,-408 537.5,-408"/>
<text text-anchor="middle" x="544.5" y="-450.3" font-family="Times,serif" font-size="14.00">urls</text>
<polyline fill="none" stroke="blue" points="563.5,-408 563.5,-500 "/>
<text text-anchor="middle" x="604.5" y="-484.8" font-family="Times,serif" font-size="14.00">1: flower_id</text>
<polyline fill="none" stroke="blue" points="563.5,-477 645.5,-477 "/>
<text text-anchor="middle" x="604.5" y="-461.8" font-family="Times,serif" font-size="14.00">2: id</text>
<polyline fill="none" stroke="blue" points="563.5,-454 645.5,-454 "/>
<text text-anchor="middle" x="604.5" y="-438.8" font-family="Times,serif" font-size="14.00">3: sequence</text>
<polyline fill="none" stroke="blue" points="563.5,-431 645.5,-431 "/>
<text text-anchor="middle" x="604.5" y="-415.8" font-family="Times,serif" font-size="14.00">4: url</text>
</g>
<!-- urls&#45;&gt;flowers -->
<g id="edge6" class="edge"><title>urls:port1&#45;&gt;flowers:port0:w</title>
<path fill="none" stroke="grey" d="M646.5,-489C655.556,-489 651.066,-414.644 645.5,-407.5 594.915,-342.57 516.942,-425.041 466.5,-360 434.205,-318.358 412.141,-243.777 455.284,-234.055"/>
<polygon fill="grey" stroke="grey" points="455.912,-237.509 465.5,-233 455.193,-230.546 455.912,-237.509"/>
</g>
</g>
</svg>
