<?xml version="1.0" encoding="UTF-8" standalone="no"?>
<!DOCTYPE svg PUBLIC "-//W3C//DTD SVG 1.1//EN"
 "http://www.w3.org/Graphics/SVG/1.1/DTD/svg11.dtd">
<!-- Generated by graphviz version 2.38.0 (20140413.2041)
 -->
<!-- Title: Perl Pages: 1 -->
<svg width="1237pt" height="487pt"
 viewBox="0.00 0.00 1236.50 486.82" xmlns="http://www.w3.org/2000/svg" xmlns:xlink="http://www.w3.org/1999/xlink">
<g id="graph0" class="graph" transform="scale(1 1) rotate(0) translate(4 482.822)">
<title>Perl</title>
<polygon fill="white" stroke="none" points="-4,4 -4,-482.822 1232.5,-482.822 1232.5,4 -4,4"/>
<!-- attribute_types -->
<g id="node1" class="node"><title>attribute_types</title>
<path fill="none" stroke="blue" d="M144.5,-187C144.5,-187 300.5,-187 300.5,-187 306.5,-187 312.5,-193 312.5,-199 312.5,-199 312.5,-267 312.5,-267 312.5,-273 306.5,-279 300.5,-279 300.5,-279 144.5,-279 144.5,-279 138.5,-279 132.5,-273 132.5,-267 132.5,-267 132.5,-199 132.5,-199 132.5,-193 138.5,-187 144.5,-187"/>
<text text-anchor="middle" x="182.5" y="-229.3" font-family="Times,serif" font-size="14.00">attribute_types</text>
<polyline fill="none" stroke="blue" points="232.5,-187 232.5,-279 "/>
<text text-anchor="middle" x="272.5" y="-263.8" font-family="Times,serif" font-size="14.00">1: id</text>
<polyline fill="none" stroke="blue" points="232.5,-256 312.5,-256 "/>
<text text-anchor="middle" x="272.5" y="-240.8" font-family="Times,serif" font-size="14.00">2: name</text>
<polyline fill="none" stroke="blue" points="232.5,-233 312.5,-233 "/>
<text text-anchor="middle" x="272.5" y="-217.8" font-family="Times,serif" font-size="14.00">3: range</text>
<polyline fill="none" stroke="blue" points="232.5,-210 312.5,-210 "/>
<text text-anchor="middle" x="272.5" y="-194.8" font-family="Times,serif" font-size="14.00">4: sequence</text>
</g>
<!-- attributes -->
<g id="node2" class="node"><title>attributes</title>
<path fill="none" stroke="blue" d="M12,-362C12,-362 183,-362 183,-362 189,-362 195,-368 195,-374 195,-374 195,-442 195,-442 195,-448 189,-454 183,-454 183,-454 12,-454 12,-454 6,-454 0,-448 0,-442 0,-442 0,-374 0,-374 0,-368 6,-362 12,-362"/>
<text text-anchor="middle" x="35" y="-404.3" font-family="Times,serif" font-size="14.00">attributes</text>
<polyline fill="none" stroke="blue" points="70,-362 70,-454 "/>
<text text-anchor="middle" x="132.5" y="-438.8" font-family="Times,serif" font-size="14.00">1: attribute_type_id</text>
<polyline fill="none" stroke="blue" points="70,-431 195,-431 "/>
<text text-anchor="middle" x="132.5" y="-415.8" font-family="Times,serif" font-size="14.00">2: flower_id</text>
<polyline fill="none" stroke="blue" points="70,-408 195,-408 "/>
<text text-anchor="middle" x="132.5" y="-392.8" font-family="Times,serif" font-size="14.00">3: id</text>
<polyline fill="none" stroke="blue" points="70,-385 195,-385 "/>
<text text-anchor="middle" x="132.5" y="-369.8" font-family="Times,serif" font-size="14.00">4: range</text>
</g>
<!-- attributes&#45;&gt;attribute_types -->
<g id="edge1" class="edge"><title>attributes:port1&#45;&gt;attribute_types:port0:w</title>
<path fill="none" stroke="grey" d="M196.5,-443C205.556,-443 198.466,-370.057 195.5,-361.5 180.447,-318.076 147.753,-322.854 132.5,-279.5 127.247,-264.57 117.334,-245.244 122.254,-237.005"/>
<polygon fill="grey" stroke="grey" points="123.715,-240.187 131.5,-233 120.933,-233.763 123.715,-240.187"/>
</g>
<!-- flowers -->
<g id="node5" class="node"><title>flowers</title>
<path fill="none" stroke="blue" d="M479,-152.5C479,-152.5 630,-152.5 630,-152.5 636,-152.5 642,-158.5 642,-164.5 642,-164.5 642,-301.5 642,-301.5 642,-307.5 636,-313.5 630,-313.5 630,-313.5 479,-313.5 479,-313.5 473,-313.5 467,-307.5 467,-301.5 467,-301.5 467,-164.5 467,-164.5 467,-158.5 473,-152.5 479,-152.5"/>
<text text-anchor="middle" x="495.5" y="-229.3" font-family="Times,serif" font-size="14.00">flowers</text>
<polyline fill="none" stroke="blue" points="524,-152.5 524,-313.5 "/>
<text text-anchor="middle" x="583" y="-298.3" font-family="Times,serif" font-size="14.00">1: aliases</text>
<polyline fill="none" stroke="blue" points="524,-290.5 642,-290.5 "/>
<text text-anchor="middle" x="583" y="-275.3" font-family="Times,serif" font-size="14.00">2: common_name</text>
<polyline fill="none" stroke="blue" points="524,-267.5 642,-267.5 "/>
<text text-anchor="middle" x="583" y="-252.3" font-family="Times,serif" font-size="14.00">3: height</text>
<polyline fill="none" stroke="blue" points="524,-244.5 642,-244.5 "/>
<text text-anchor="middle" x="583" y="-229.3" font-family="Times,serif" font-size="14.00">4: id</text>
<polyline fill="none" stroke="blue" points="524,-221.5 642,-221.5 "/>
<text text-anchor="middle" x="583" y="-206.3" font-family="Times,serif" font-size="14.00">5: pig_latin</text>
<polyline fill="none" stroke="blue" points="524,-198.5 642,-198.5 "/>
<text text-anchor="middle" x="583" y="-183.3" font-family="Times,serif" font-size="14.00">6: scientific_name</text>
<polyline fill="none" stroke="blue" points="524,-175.5 642,-175.5 "/>
<text text-anchor="middle" x="583" y="-160.3" font-family="Times,serif" font-size="14.00">7: width</text>
</g>
<!-- attributes&#45;&gt;flowers -->
<g id="edge3" class="edge"><title>attributes:port2&#45;&gt;flowers:port0:w</title>
<path fill="none" stroke="grey" d="M196.5,-420C212.133,-420 193.583,-362.085 203.5,-350 238.282,-307.614 271.089,-335.567 321.5,-314 385.715,-286.528 391.617,-238.034 455.231,-233.364"/>
<polygon fill="grey" stroke="grey" points="455.63,-236.852 465.5,-233 455.382,-229.857 455.63,-236.852"/>
</g>
<!-- colors -->
<g id="node3" class="node"><title>colors</title>
<path fill="none" stroke="blue" d="M1130.5,-0.5C1130.5,-0.5 1216.5,-0.5 1216.5,-0.5 1222.5,-0.5 1228.5,-6.5 1228.5,-12.5 1228.5,-12.5 1228.5,-103.5 1228.5,-103.5 1228.5,-109.5 1222.5,-115.5 1216.5,-115.5 1216.5,-115.5 1130.5,-115.5 1130.5,-115.5 1124.5,-115.5 1118.5,-109.5 1118.5,-103.5 1118.5,-103.5 1118.5,-12.5 1118.5,-12.5 1118.5,-6.5 1124.5,-0.5 1130.5,-0.5"/>
<text text-anchor="middle" x="1143.5" y="-54.3" font-family="Times,serif" font-size="14.00">colors</text>
<polyline fill="none" stroke="blue" points="1168.5,-0.5 1168.5,-115.5 "/>
<text text-anchor="middle" x="1198.5" y="-100.3" font-family="Times,serif" font-size="14.00">1: color</text>
<polyline fill="none" stroke="blue" points="1168.5,-92.5 1228.5,-92.5 "/>
<text text-anchor="middle" x="1198.5" y="-77.3" font-family="Times,serif" font-size="14.00">2: hex</text>
<polyline fill="none" stroke="blue" points="1168.5,-69.5 1228.5,-69.5 "/>
<text text-anchor="middle" x="1198.5" y="-54.3" font-family="Times,serif" font-size="14.00">3: id</text>
<polyline fill="none" stroke="blue" points="1168.5,-46.5 1228.5,-46.5 "/>
<text text-anchor="middle" x="1198.5" y="-31.3" font-family="Times,serif" font-size="14.00">4: name</text>
<polyline fill="none" stroke="blue" points="1168.5,-23.5 1228.5,-23.5 "/>
<text text-anchor="middle" x="1198.5" y="-8.3" font-family="Times,serif" font-size="14.00">5: rgb</text>
</g>
<!-- flower_locations -->
<g id="node4" class="node"><title>flower_locations</title>
<path fill="none" stroke="blue" d="M676,-350.5C676,-350.5 845,-350.5 845,-350.5 851,-350.5 857,-356.5 857,-362.5 857,-362.5 857,-453.5 857,-453.5 857,-459.5 851,-465.5 845,-465.5 845,-465.5 676,-465.5 676,-465.5 670,-465.5 664,-459.5 664,-453.5 664,-453.5 664,-362.5 664,-362.5 664,-356.5 670,-350.5 676,-350.5"/>
<text text-anchor="middle" x="718.5" y="-404.3" font-family="Times,serif" font-size="14.00">flower_locations</text>
<polyline fill="none" stroke="blue" points="773,-350.5 773,-465.5 "/>
<text text-anchor="middle" x="815" y="-450.3" font-family="Times,serif" font-size="14.00">1: flower_id</text>
<polyline fill="none" stroke="blue" points="773,-442.5 857,-442.5 "/>
<text text-anchor="middle" x="815" y="-427.3" font-family="Times,serif" font-size="14.00">2: garden_id</text>
<polyline fill="none" stroke="blue" points="773,-419.5 857,-419.5 "/>
<text text-anchor="middle" x="815" y="-404.3" font-family="Times,serif" font-size="14.00">3: id</text>
<polyline fill="none" stroke="blue" points="773,-396.5 857,-396.5 "/>
<text text-anchor="middle" x="815" y="-381.3" font-family="Times,serif" font-size="14.00">4: x</text>
<polyline fill="none" stroke="blue" points="773,-373.5 857,-373.5 "/>
<text text-anchor="middle" x="815" y="-358.3" font-family="Times,serif" font-size="14.00">5: y</text>
</g>
<!-- flower_locations&#45;&gt;flowers -->
<g id="edge4" class="edge"><title>flower_locations:port1&#45;&gt;flowers:port0:w</title>
<path fill="none" stroke="grey" d="M815.5,-467C815.5,-485.45 844.112,-479.202 857,-466 866.003,-456.777 865.685,-359.523 857,-350 798.275,-285.612 525.621,-378.024 466.5,-314 444.747,-290.443 432.39,-244.597 455.382,-234.85"/>
<polygon fill="grey" stroke="grey" points="456.292,-238.241 465.5,-233 455.034,-231.355 456.292,-238.241"/>
</g>
<!-- gardens -->
<g id="node6" class="node"><title>gardens</title>
<path fill="none" stroke="blue" d="M848,-198.5C848,-198.5 975,-198.5 975,-198.5 981,-198.5 987,-204.5 987,-210.5 987,-210.5 987,-255.5 987,-255.5 987,-261.5 981,-267.5 975,-267.5 975,-267.5 848,-267.5 848,-267.5 842,-267.5 836,-261.5 836,-255.5 836,-255.5 836,-210.5 836,-210.5 836,-204.5 842,-198.5 848,-198.5"/>
<text text-anchor="middle" x="865.5" y="-229.3" font-family="Times,serif" font-size="14.00">gardens</text>
<polyline fill="none" stroke="blue" points="895,-198.5 895,-267.5 "/>
<text text-anchor="middle" x="941" y="-252.3" font-family="Times,serif" font-size="14.00">1: description</text>
<polyline fill="none" stroke="blue" points="895,-244.5 987,-244.5 "/>
<text text-anchor="middle" x="941" y="-229.3" font-family="Times,serif" font-size="14.00">2: id</text>
<polyline fill="none" stroke="blue" points="895,-221.5 987,-221.5 "/>
<text text-anchor="middle" x="941" y="-206.3" font-family="Times,serif" font-size="14.00">3: name</text>
</g>
<!-- flower_locations&#45;&gt;gardens -->
<g id="edge8" class="edge"><title>flower_locations:port2&#45;&gt;gardens:port0:w</title>
<path fill="none" stroke="grey" d="M858.5,-431C867.501,-431 858.731,-358.916 857.5,-350 852.338,-312.621 840.965,-305.335 835.5,-268 834.109,-258.497 828.126,-247.392 827.408,-240.282"/>
<polygon fill="grey" stroke="grey" points="830.031,-242.606 834.5,-233 825.016,-237.722 830.031,-242.606"/>
</g>
<!-- images -->
<g id="node7" class="node"><title>images</title>
<path fill="none" stroke="blue" d="M225,-350.5C225,-350.5 348,-350.5 348,-350.5 354,-350.5 360,-356.5 360,-362.5 360,-362.5 360,-453.5 360,-453.5 360,-459.5 354,-465.5 348,-465.5 348,-465.5 225,-465.5 225,-465.5 219,-465.5 213,-459.5 213,-453.5 213,-453.5 213,-362.5 213,-362.5 213,-356.5 219,-350.5 225,-350.5"/>
<text text-anchor="middle" x="240.5" y="-404.3" font-family="Times,serif" font-size="14.00">images</text>
<polyline fill="none" stroke="blue" points="268,-350.5 268,-465.5 "/>
<text text-anchor="middle" x="314" y="-450.3" font-family="Times,serif" font-size="14.00">1: description</text>
<polyline fill="none" stroke="blue" points="268,-442.5 360,-442.5 "/>
<text text-anchor="middle" x="314" y="-427.3" font-family="Times,serif" font-size="14.00">2: file_name</text>
<polyline fill="none" stroke="blue" points="268,-419.5 360,-419.5 "/>
<text text-anchor="middle" x="314" y="-404.3" font-family="Times,serif" font-size="14.00">3: flower_id</text>
<polyline fill="none" stroke="blue" points="268,-396.5 360,-396.5 "/>
<text text-anchor="middle" x="314" y="-381.3" font-family="Times,serif" font-size="14.00">4: id</text>
<polyline fill="none" stroke="blue" points="268,-373.5 360,-373.5 "/>
<text text-anchor="middle" x="314" y="-358.3" font-family="Times,serif" font-size="14.00">5: sequence</text>
</g>
<!-- images&#45;&gt;flowers -->
<g id="edge5" class="edge"><title>images:port3&#45;&gt;flowers:port0:w</title>
<path fill="none" stroke="grey" d="M361.5,-408C374.482,-408 363.371,-361.926 368.5,-350 393.779,-291.221 397.595,-238.815 455.341,-233.451"/>
<polygon fill="grey" stroke="grey" points="455.665,-236.941 465.5,-233 455.354,-229.947 455.665,-236.941"/>
</g>
<!-- notes -->
<g id="node8" class="node"><title>notes</title>
<path fill="none" stroke="blue" d="M390,-362C390,-362 495,-362 495,-362 501,-362 507,-368 507,-374 507,-374 507,-442 507,-442 507,-448 501,-454 495,-454 495,-454 390,-454 390,-454 384,-454 378,-448 378,-442 378,-442 378,-374 378,-374 378,-368 384,-362 390,-362"/>
<text text-anchor="middle" x="401.5" y="-404.3" font-family="Times,serif" font-size="14.00">notes</text>
<polyline fill="none" stroke="blue" points="425,-362 425,-454 "/>
<text text-anchor="middle" x="466" y="-438.8" font-family="Times,serif" font-size="14.00">1: flower_id</text>
<polyline fill="none" stroke="blue" points="425,-431 507,-431 "/>
<text text-anchor="middle" x="466" y="-415.8" font-family="Times,serif" font-size="14.00">2: id</text>
<polyline fill="none" stroke="blue" points="425,-408 507,-408 "/>
<text text-anchor="middle" x="466" y="-392.8" font-family="Times,serif" font-size="14.00">3: note</text>
<polyline fill="none" stroke="blue" points="425,-385 507,-385 "/>
<text text-anchor="middle" x="466" y="-369.8" font-family="Times,serif" font-size="14.00">4: sequence</text>
</g>
<!-- notes&#45;&gt;flowers -->
<g id="edge6" class="edge"><title>notes:port1&#45;&gt;flowers:port0:w</title>
<path fill="none" stroke="grey" d="M508.5,-443C517.556,-443 510.709,-369.969 507.5,-361.5 497.619,-335.421 476.382,-340.078 466.5,-314 455.188,-284.147 434.843,-243.549 455.48,-234.734"/>
<polygon fill="grey" stroke="grey" points="456.243,-238.154 465.5,-233 455.05,-231.256 456.243,-238.154"/>
</g>
<!-- object_locations -->
<g id="node9" class="node"><title>object_locations</title>
<path fill="none" stroke="blue" d="M887,-350.5C887,-350.5 1054,-350.5 1054,-350.5 1060,-350.5 1066,-356.5 1066,-362.5 1066,-362.5 1066,-453.5 1066,-453.5 1066,-459.5 1060,-465.5 1054,-465.5 1054,-465.5 887,-465.5 887,-465.5 881,-465.5 875,-459.5 875,-453.5 875,-453.5 875,-362.5 875,-362.5 875,-356.5 881,-350.5 887,-350.5"/>
<text text-anchor="middle" x="928.5" y="-404.3" font-family="Times,serif" font-size="14.00">object_locations</text>
<polyline fill="none" stroke="blue" points="982,-350.5 982,-465.5 "/>
<text text-anchor="middle" x="1024" y="-450.3" font-family="Times,serif" font-size="14.00">1: garden_id</text>
<polyline fill="none" stroke="blue" points="982,-442.5 1066,-442.5 "/>
<text text-anchor="middle" x="1024" y="-427.3" font-family="Times,serif" font-size="14.00">2: id</text>
<polyline fill="none" stroke="blue" points="982,-419.5 1066,-419.5 "/>
<text text-anchor="middle" x="1024" y="-404.3" font-family="Times,serif" font-size="14.00">3: object_id</text>
<polyline fill="none" stroke="blue" points="982,-396.5 1066,-396.5 "/>
<text text-anchor="middle" x="1024" y="-381.3" font-family="Times,serif" font-size="14.00">4: x</text>
<polyline fill="none" stroke="blue" points="982,-373.5 1066,-373.5 "/>
<text text-anchor="middle" x="1024" y="-358.3" font-family="Times,serif" font-size="14.00">5: y</text>
</g>
<!-- object_locations&#45;&gt;gardens -->
<g id="edge9" class="edge"><title>object_locations:port1&#45;&gt;gardens:port0:w</title>
<path fill="none" stroke="grey" d="M1024.5,-467C1024.5,-485.45 1053.11,-479.202 1066,-466 1102.01,-429.108 1095.72,-392.124 1066,-350 1034.65,-305.579 867.477,-311.969 835.5,-268 829.207,-259.347 823.739,-246.049 825.993,-238.583"/>
<polygon fill="grey" stroke="grey" points="828.06,-241.413 834.5,-233 824.219,-235.56 828.06,-241.413"/>
</g>
<!-- objects -->
<g id="node10" class="node"><title>objects</title>
<path fill="none" stroke="blue" d="M1037,-198.5C1037,-198.5 1144,-198.5 1144,-198.5 1150,-198.5 1156,-204.5 1156,-210.5 1156,-210.5 1156,-255.5 1156,-255.5 1156,-261.5 1150,-267.5 1144,-267.5 1144,-267.5 1037,-267.5 1037,-267.5 1031,-267.5 1025,-261.5 1025,-255.5 1025,-255.5 1025,-210.5 1025,-210.5 1025,-204.5 1031,-198.5 1037,-198.5"/>
<text text-anchor="middle" x="1053" y="-229.3" font-family="Times,serif" font-size="14.00">objects</text>
<polyline fill="none" stroke="blue" points="1081,-198.5 1081,-267.5 "/>
<text text-anchor="middle" x="1118.5" y="-252.3" font-family="Times,serif" font-size="14.00">1: color_id</text>
<polyline fill="none" stroke="blue" points="1081,-244.5 1156,-244.5 "/>
<text text-anchor="middle" x="1118.5" y="-229.3" font-family="Times,serif" font-size="14.00">2: id</text>
<polyline fill="none" stroke="blue" points="1081,-221.5 1156,-221.5 "/>
<text text-anchor="middle" x="1118.5" y="-206.3" font-family="Times,serif" font-size="14.00">3: name</text>
</g>
<!-- object_locations&#45;&gt;objects -->
<g id="edge10" class="edge"><title>object_locations:port3&#45;&gt;objects:port0:w</title>
<path fill="none" stroke="grey" d="M1067.5,-408C1093.28,-408 1072.76,-375.01 1066.5,-350 1056.56,-310.279 1034.67,-307.664 1024.5,-268 1022.02,-258.343 1015.92,-246.695 1015.95,-239.57"/>
<polygon fill="grey" stroke="grey" points="1018.25,-242.205 1023.5,-233 1013.66,-236.924 1018.25,-242.205"/>
</g>
<!-- objects&#45;&gt;colors -->
<g id="edge2" class="edge"><title>objects:port1&#45;&gt;colors:port0:w</title>
<path fill="none" stroke="grey" d="M1157.5,-256C1243.24,-256 1046.82,-75.3895 1107.22,-59.1628"/>
<polygon fill="grey" stroke="grey" points="1107.96,-62.6016 1117.5,-58 1107.17,-55.6459 1107.96,-62.6016"/>
</g>
<!-- urls -->
<g id="node11" class="node"><title>urls</title>
<path fill="none" stroke="blue" d="M537.5,-362C537.5,-362 633.5,-362 633.5,-362 639.5,-362 645.5,-368 645.5,-374 645.5,-374 645.5,-442 645.5,-442 645.5,-448 639.5,-454 633.5,-454 633.5,-454 537.5,-454 537.5,-454 531.5,-454 525.5,-448 525.5,-442 525.5,-442 525.5,-374 525.5,-374 525.5,-368 531.5,-362 537.5,-362"/>
<text text-anchor="middle" x="544.5" y="-404.3" font-family="Times,serif" font-size="14.00">urls</text>
<polyline fill="none" stroke="blue" points="563.5,-362 563.5,-454 "/>
<text text-anchor="middle" x="604.5" y="-438.8" font-family="Times,serif" font-size="14.00">1: flower_id</text>
<polyline fill="none" stroke="blue" points="563.5,-431 645.5,-431 "/>
<text text-anchor="middle" x="604.5" y="-415.8" font-family="Times,serif" font-size="14.00">2: id</text>
<polyline fill="none" stroke="blue" points="563.5,-408 645.5,-408 "/>
<text text-anchor="middle" x="604.5" y="-392.8" font-family="Times,serif" font-size="14.00">3: sequence</text>
<polyline fill="none" stroke="blue" points="563.5,-385 645.5,-385 "/>
<text text-anchor="middle" x="604.5" y="-369.8" font-family="Times,serif" font-size="14.00">4: url</text>
</g>
<!-- urls&#45;&gt;flowers -->
<g id="edge7" class="edge"><title>urls:port1&#45;&gt;flowers:port0:w</title>
<path fill="none" stroke="grey" d="M604.5,-455C604.5,-473.228 632.769,-467.045 645.5,-454 652.678,-446.644 651.767,-369.646 645.5,-361.5 595.315,-296.26 517.087,-378.929 466.5,-314 446.793,-288.706 432.838,-244.217 455.455,-234.787"/>
<polygon fill="grey" stroke="grey" points="456.268,-238.198 465.5,-233 455.041,-231.306 456.268,-238.198"/>
</g>
</g>
</svg>
