<?xml version="1.0" encoding="UTF-8" standalone="no"?>
<!DOCTYPE svg PUBLIC "-//W3C//DTD SVG 1.1//EN"
 "http://www.w3.org/Graphics/SVG/1.1/DTD/svg11.dtd">
<!-- Generated by graphviz version 2.38.0 (20140413.2041)
 -->
<!-- Title: Perl Pages: 1 -->
<svg width="1242pt" height="603pt"
 viewBox="0.00 0.00 1241.50 602.79" xmlns="http://www.w3.org/2000/svg" xmlns:xlink="http://www.w3.org/1999/xlink">
<g id="graph0" class="graph" transform="scale(1 1) rotate(0) translate(4 598.785)">
<title>Perl</title>
<polygon fill="white" stroke="none" points="-4,4 -4,-598.785 1237.5,-598.785 1237.5,4 -4,4"/>
<!-- attribute_types -->
<g id="node1" class="node"><title>attribute_types</title>
<path fill="none" stroke="blue" d="M144.5,-221.5C144.5,-221.5 300.5,-221.5 300.5,-221.5 306.5,-221.5 312.5,-227.5 312.5,-233.5 312.5,-233.5 312.5,-301.5 312.5,-301.5 312.5,-307.5 306.5,-313.5 300.5,-313.5 300.5,-313.5 144.5,-313.5 144.5,-313.5 138.5,-313.5 132.5,-307.5 132.5,-301.5 132.5,-301.5 132.5,-233.5 132.5,-233.5 132.5,-227.5 138.5,-221.5 144.5,-221.5"/>
<text text-anchor="middle" x="182.5" y="-263.8" font-family="Times,serif" font-size="14.00">attribute_types</text>
<polyline fill="none" stroke="blue" points="232.5,-221.5 232.5,-313.5 "/>
<text text-anchor="middle" x="272.5" y="-298.3" font-family="Times,serif" font-size="14.00">1: id</text>
<polyline fill="none" stroke="blue" points="232.5,-290.5 312.5,-290.5 "/>
<text text-anchor="middle" x="272.5" y="-275.3" font-family="Times,serif" font-size="14.00">2: name</text>
<polyline fill="none" stroke="blue" points="232.5,-267.5 312.5,-267.5 "/>
<text text-anchor="middle" x="272.5" y="-252.3" font-family="Times,serif" font-size="14.00">3: range</text>
<polyline fill="none" stroke="blue" points="232.5,-244.5 312.5,-244.5 "/>
<text text-anchor="middle" x="272.5" y="-229.3" font-family="Times,serif" font-size="14.00">4: sequence</text>
</g>
<!-- attributes -->
<g id="node2" class="node"><title>attributes</title>
<path fill="none" stroke="blue" d="M12,-465.5C12,-465.5 183,-465.5 183,-465.5 189,-465.5 195,-471.5 195,-477.5 195,-477.5 195,-545.5 195,-545.5 195,-551.5 189,-557.5 183,-557.5 183,-557.5 12,-557.5 12,-557.5 6,-557.5 0,-551.5 0,-545.5 0,-545.5 0,-477.5 0,-477.5 0,-471.5 6,-465.5 12,-465.5"/>
<text text-anchor="middle" x="35" y="-507.8" font-family="Times,serif" font-size="14.00">attributes</text>
<polyline fill="none" stroke="blue" points="70,-465.5 70,-557.5 "/>
<text text-anchor="middle" x="132.5" y="-542.3" font-family="Times,serif" font-size="14.00">1: attribute_type_id</text>
<polyline fill="none" stroke="blue" points="70,-534.5 195,-534.5 "/>
<text text-anchor="middle" x="132.5" y="-519.3" font-family="Times,serif" font-size="14.00">2: flower_id</text>
<polyline fill="none" stroke="blue" points="70,-511.5 195,-511.5 "/>
<text text-anchor="middle" x="132.5" y="-496.3" font-family="Times,serif" font-size="14.00">3: id</text>
<polyline fill="none" stroke="blue" points="70,-488.5 195,-488.5 "/>
<text text-anchor="middle" x="132.5" y="-473.3" font-family="Times,serif" font-size="14.00">4: range</text>
</g>
<!-- attributes&#45;&gt;attribute_types -->
<g id="edge1" class="edge"><title>attributes:port1&#45;&gt;attribute_types:port0:w</title>
<path fill="none" stroke="grey" d="M196.5,-546.5C205.556,-546.5 197.333,-473.869 195.5,-465 177.594,-378.344 50.3159,-276.26 121.282,-268.032"/>
<polygon fill="grey" stroke="grey" points="121.696,-271.515 131.5,-267.5 121.331,-264.525 121.696,-271.515"/>
</g>
<!-- flowers -->
<g id="node5" class="node"><title>flowers</title>
<path fill="none" stroke="blue" d="M478.5,-129.5C478.5,-129.5 636.5,-129.5 636.5,-129.5 642.5,-129.5 648.5,-135.5 648.5,-141.5 648.5,-141.5 648.5,-393.5 648.5,-393.5 648.5,-399.5 642.5,-405.5 636.5,-405.5 636.5,-405.5 478.5,-405.5 478.5,-405.5 472.5,-405.5 466.5,-399.5 466.5,-393.5 466.5,-393.5 466.5,-141.5 466.5,-141.5 466.5,-135.5 472.5,-129.5 478.5,-129.5"/>
<text text-anchor="middle" x="495" y="-263.8" font-family="Times,serif" font-size="14.00">flowers</text>
<polyline fill="none" stroke="blue" points="523.5,-129.5 523.5,-405.5 "/>
<text text-anchor="middle" x="586" y="-390.3" font-family="Times,serif" font-size="14.00">1: aliases</text>
<polyline fill="none" stroke="blue" points="523.5,-382.5 648.5,-382.5 "/>
<text text-anchor="middle" x="586" y="-367.3" font-family="Times,serif" font-size="14.00">2: common_name</text>
<polyline fill="none" stroke="blue" points="523.5,-359.5 648.5,-359.5 "/>
<text text-anchor="middle" x="586" y="-344.3" font-family="Times,serif" font-size="14.00">3: height</text>
<polyline fill="none" stroke="blue" points="523.5,-336.5 648.5,-336.5 "/>
<text text-anchor="middle" x="586" y="-321.3" font-family="Times,serif" font-size="14.00">4: id</text>
<polyline fill="none" stroke="blue" points="523.5,-313.5 648.5,-313.5 "/>
<text text-anchor="middle" x="586" y="-298.3" font-family="Times,serif" font-size="14.00">5: max_height</text>
<polyline fill="none" stroke="blue" points="523.5,-290.5 648.5,-290.5 "/>
<text text-anchor="middle" x="586" y="-275.3" font-family="Times,serif" font-size="14.00">6: max_width</text>
<polyline fill="none" stroke="blue" points="523.5,-267.5 648.5,-267.5 "/>
<text text-anchor="middle" x="586" y="-252.3" font-family="Times,serif" font-size="14.00">7: min_height</text>
<polyline fill="none" stroke="blue" points="523.5,-244.5 648.5,-244.5 "/>
<text text-anchor="middle" x="586" y="-229.3" font-family="Times,serif" font-size="14.00">8: min_width</text>
<polyline fill="none" stroke="blue" points="523.5,-221.5 648.5,-221.5 "/>
<text text-anchor="middle" x="586" y="-206.3" font-family="Times,serif" font-size="14.00">9: pig_latin</text>
<polyline fill="none" stroke="blue" points="523.5,-198.5 648.5,-198.5 "/>
<text text-anchor="middle" x="586" y="-183.3" font-family="Times,serif" font-size="14.00">10: publish</text>
<polyline fill="none" stroke="blue" points="523.5,-175.5 648.5,-175.5 "/>
<text text-anchor="middle" x="586" y="-160.3" font-family="Times,serif" font-size="14.00">11: scientific_name</text>
<polyline fill="none" stroke="blue" points="523.5,-152.5 648.5,-152.5 "/>
<text text-anchor="middle" x="586" y="-137.3" font-family="Times,serif" font-size="14.00">12: width</text>
</g>
<!-- attributes&#45;&gt;flowers -->
<g id="edge2" class="edge"><title>attributes:port2&#45;&gt;flowers:port0:w</title>
<path fill="none" stroke="grey" d="M196.5,-523.5C205.589,-523.5 197.784,-449.066 203.5,-442 237.985,-399.371 274.22,-433.767 321.5,-406 394.929,-362.876 378.29,-275.091 455.115,-267.962"/>
<polygon fill="grey" stroke="grey" points="455.666,-271.441 465.5,-267.5 455.354,-264.448 455.666,-271.441"/>
</g>
<!-- constants -->
<g id="node3" class="node"><title>constants</title>
<path fill="none" stroke="blue" d="M1115.5,-477C1115.5,-477 1221.5,-477 1221.5,-477 1227.5,-477 1233.5,-483 1233.5,-489 1233.5,-489 1233.5,-534 1233.5,-534 1233.5,-540 1227.5,-546 1221.5,-546 1221.5,-546 1115.5,-546 1115.5,-546 1109.5,-546 1103.5,-540 1103.5,-534 1103.5,-534 1103.5,-489 1103.5,-489 1103.5,-483 1109.5,-477 1115.5,-477"/>
<text text-anchor="middle" x="1138.5" y="-507.8" font-family="Times,serif" font-size="14.00">constants</text>
<polyline fill="none" stroke="blue" points="1173.5,-477 1173.5,-546 "/>
<text text-anchor="middle" x="1203.5" y="-530.8" font-family="Times,serif" font-size="14.00">1: id</text>
<polyline fill="none" stroke="blue" points="1173.5,-523 1233.5,-523 "/>
<text text-anchor="middle" x="1203.5" y="-507.8" font-family="Times,serif" font-size="14.00">2: name</text>
<polyline fill="none" stroke="blue" points="1173.5,-500 1233.5,-500 "/>
<text text-anchor="middle" x="1203.5" y="-484.8" font-family="Times,serif" font-size="14.00">3: value</text>
</g>
<!-- flower_locations -->
<g id="node4" class="node"><title>flower_locations</title>
<path fill="none" stroke="blue" d="M675,-442.5C675,-442.5 854,-442.5 854,-442.5 860,-442.5 866,-448.5 866,-454.5 866,-454.5 866,-568.5 866,-568.5 866,-574.5 860,-580.5 854,-580.5 854,-580.5 675,-580.5 675,-580.5 669,-580.5 663,-574.5 663,-568.5 663,-568.5 663,-454.5 663,-454.5 663,-448.5 669,-442.5 675,-442.5"/>
<text text-anchor="middle" x="717.5" y="-507.8" font-family="Times,serif" font-size="14.00">flower_locations</text>
<polyline fill="none" stroke="blue" points="772,-442.5 772,-580.5 "/>
<text text-anchor="middle" x="819" y="-565.3" font-family="Times,serif" font-size="14.00">1: flower_id</text>
<polyline fill="none" stroke="blue" points="772,-557.5 866,-557.5 "/>
<text text-anchor="middle" x="819" y="-542.3" font-family="Times,serif" font-size="14.00">2: garden_id</text>
<polyline fill="none" stroke="blue" points="772,-534.5 866,-534.5 "/>
<text text-anchor="middle" x="819" y="-519.3" font-family="Times,serif" font-size="14.00">3: id</text>
<polyline fill="none" stroke="blue" points="772,-511.5 866,-511.5 "/>
<text text-anchor="middle" x="819" y="-496.3" font-family="Times,serif" font-size="14.00">4: property_id</text>
<polyline fill="none" stroke="blue" points="772,-488.5 866,-488.5 "/>
<text text-anchor="middle" x="819" y="-473.3" font-family="Times,serif" font-size="14.00">5: x</text>
<polyline fill="none" stroke="blue" points="772,-465.5 866,-465.5 "/>
<text text-anchor="middle" x="819" y="-450.3" font-family="Times,serif" font-size="14.00">6: y</text>
</g>
<!-- flower_locations&#45;&gt;flowers -->
<g id="edge3" class="edge"><title>flower_locations:port1&#45;&gt;flowers:port0:w</title>
<path fill="none" stroke="grey" d="M819.5,-581.5C819.5,-602.171 851.541,-595.273 866,-580.5 876.764,-569.502 876.382,-453.359 866,-442 805.865,-376.203 526.872,-471.58 466.5,-406 427.251,-363.365 406.459,-278.259 455.516,-268.432"/>
<polygon fill="grey" stroke="grey" points="455.868,-271.914 465.5,-267.5 455.218,-264.944 455.868,-271.914"/>
</g>
<!-- gardens -->
<g id="node6" class="node"><title>gardens</title>
<path fill="none" stroke="blue" d="M860,-210C860,-210 989,-210 989,-210 995,-210 1001,-216 1001,-222 1001,-222 1001,-313 1001,-313 1001,-319 995,-325 989,-325 989,-325 860,-325 860,-325 854,-325 848,-319 848,-313 848,-313 848,-222 848,-222 848,-216 854,-210 860,-210"/>
<text text-anchor="middle" x="877.5" y="-263.8" font-family="Times,serif" font-size="14.00">gardens</text>
<polyline fill="none" stroke="blue" points="907,-210 907,-325 "/>
<text text-anchor="middle" x="954" y="-309.8" font-family="Times,serif" font-size="14.00">1: description</text>
<polyline fill="none" stroke="blue" points="907,-302 1001,-302 "/>
<text text-anchor="middle" x="954" y="-286.8" font-family="Times,serif" font-size="14.00">2: id</text>
<polyline fill="none" stroke="blue" points="907,-279 1001,-279 "/>
<text text-anchor="middle" x="954" y="-263.8" font-family="Times,serif" font-size="14.00">3: name</text>
<polyline fill="none" stroke="blue" points="907,-256 1001,-256 "/>
<text text-anchor="middle" x="954" y="-240.8" font-family="Times,serif" font-size="14.00">4: property_id</text>
<polyline fill="none" stroke="blue" points="907,-233 1001,-233 "/>
<text text-anchor="middle" x="954" y="-217.8" font-family="Times,serif" font-size="14.00">5: publish</text>
</g>
<!-- flower_locations&#45;&gt;gardens -->
<g id="edge7" class="edge"><title>flower_locations:port2&#45;&gt;gardens:port0:w</title>
<path fill="none" stroke="grey" d="M867.5,-546.5C879.112,-546.5 867.493,-453.569 866.5,-442 862.014,-389.73 852.187,-377.752 847.5,-325.5 845.629,-304.636 829.118,-279.387 836.821,-270.652"/>
<polygon fill="grey" stroke="grey" points="838.075,-273.925 846.5,-267.5 835.908,-267.269 838.075,-273.925"/>
</g>
<!-- properties -->
<g id="node11" class="node"><title>properties</title>
<path fill="none" stroke="blue" d="M967,-0.5C967,-0.5 1108,-0.5 1108,-0.5 1114,-0.5 1120,-6.5 1120,-12.5 1120,-12.5 1120,-80.5 1120,-80.5 1120,-86.5 1114,-92.5 1108,-92.5 1108,-92.5 967,-92.5 967,-92.5 961,-92.5 955,-86.5 955,-80.5 955,-80.5 955,-12.5 955,-12.5 955,-6.5 961,-0.5 967,-0.5"/>
<text text-anchor="middle" x="991.5" y="-42.8" font-family="Times,serif" font-size="14.00">properties</text>
<polyline fill="none" stroke="blue" points="1028,-0.5 1028,-92.5 "/>
<text text-anchor="middle" x="1074" y="-77.3" font-family="Times,serif" font-size="14.00">1: description</text>
<polyline fill="none" stroke="blue" points="1028,-69.5 1120,-69.5 "/>
<text text-anchor="middle" x="1074" y="-54.3" font-family="Times,serif" font-size="14.00">2: id</text>
<polyline fill="none" stroke="blue" points="1028,-46.5 1120,-46.5 "/>
<text text-anchor="middle" x="1074" y="-31.3" font-family="Times,serif" font-size="14.00">3: name</text>
<polyline fill="none" stroke="blue" points="1028,-23.5 1120,-23.5 "/>
<text text-anchor="middle" x="1074" y="-8.3" font-family="Times,serif" font-size="14.00">4: publish</text>
</g>
<!-- flower_locations&#45;&gt;properties -->
<g id="edge10" class="edge"><title>flower_locations:port4&#45;&gt;properties:port0:w</title>
<path fill="none" stroke="grey" d="M867.5,-499.5C880.28,-499.5 870.752,-454.051 866.5,-442 859.755,-422.885 845.078,-425.173 838.5,-406 798.546,-289.552 782.279,-238.524 838.5,-129 865.599,-76.2088 887.932,-49.6008 943.184,-46.7559"/>
<polygon fill="grey" stroke="grey" points="943.59,-50.247 953.5,-46.5 943.416,-43.2492 943.59,-50.247"/>
</g>
<!-- gardens&#45;&gt;properties -->
<g id="edge11" class="edge"><title>gardens:port4&#45;&gt;properties:port0:w</title>
<path fill="none" stroke="grey" d="M1002.5,-244.5C1018.06,-244.5 1004.68,-224.733 1001.5,-209.5 990.079,-154.848 965.728,-147.692 954.5,-93 951.382,-77.8131 940.751,-59.2503 944.351,-50.9181"/>
<polygon fill="grey" stroke="grey" points="946.017,-54.0003 953.5,-46.5 942.973,-47.6968 946.017,-54.0003"/>
</g>
<!-- images -->
<g id="node7" class="node"><title>images</title>
<path fill="none" stroke="blue" d="M225,-454C225,-454 348,-454 348,-454 354,-454 360,-460 360,-466 360,-466 360,-557 360,-557 360,-563 354,-569 348,-569 348,-569 225,-569 225,-569 219,-569 213,-563 213,-557 213,-557 213,-466 213,-466 213,-460 219,-454 225,-454"/>
<text text-anchor="middle" x="240.5" y="-507.8" font-family="Times,serif" font-size="14.00">images</text>
<polyline fill="none" stroke="blue" points="268,-454 268,-569 "/>
<text text-anchor="middle" x="314" y="-553.8" font-family="Times,serif" font-size="14.00">1: description</text>
<polyline fill="none" stroke="blue" points="268,-546 360,-546 "/>
<text text-anchor="middle" x="314" y="-530.8" font-family="Times,serif" font-size="14.00">2: file_name</text>
<polyline fill="none" stroke="blue" points="268,-523 360,-523 "/>
<text text-anchor="middle" x="314" y="-507.8" font-family="Times,serif" font-size="14.00">3: flower_id</text>
<polyline fill="none" stroke="blue" points="268,-500 360,-500 "/>
<text text-anchor="middle" x="314" y="-484.8" font-family="Times,serif" font-size="14.00">4: id</text>
<polyline fill="none" stroke="blue" points="268,-477 360,-477 "/>
<text text-anchor="middle" x="314" y="-461.8" font-family="Times,serif" font-size="14.00">5: sequence</text>
</g>
<!-- images&#45;&gt;flowers -->
<g id="edge4" class="edge"><title>images:port3&#45;&gt;flowers:port0:w</title>
<path fill="none" stroke="grey" d="M361.5,-511.5C369.261,-511.5 366.178,-449.406 368.5,-442 393.96,-360.805 378.192,-274.86 455.111,-267.947"/>
<polygon fill="grey" stroke="grey" points="455.66,-271.427 465.5,-267.5 455.359,-264.433 455.66,-271.427"/>
</g>
<!-- notes -->
<g id="node8" class="node"><title>notes</title>
<path fill="none" stroke="blue" d="M390,-465.5C390,-465.5 495,-465.5 495,-465.5 501,-465.5 507,-471.5 507,-477.5 507,-477.5 507,-545.5 507,-545.5 507,-551.5 501,-557.5 495,-557.5 495,-557.5 390,-557.5 390,-557.5 384,-557.5 378,-551.5 378,-545.5 378,-545.5 378,-477.5 378,-477.5 378,-471.5 384,-465.5 390,-465.5"/>
<text text-anchor="middle" x="401.5" y="-507.8" font-family="Times,serif" font-size="14.00">notes</text>
<polyline fill="none" stroke="blue" points="425,-465.5 425,-557.5 "/>
<text text-anchor="middle" x="466" y="-542.3" font-family="Times,serif" font-size="14.00">1: flower_id</text>
<polyline fill="none" stroke="blue" points="425,-534.5 507,-534.5 "/>
<text text-anchor="middle" x="466" y="-519.3" font-family="Times,serif" font-size="14.00">2: id</text>
<polyline fill="none" stroke="blue" points="425,-511.5 507,-511.5 "/>
<text text-anchor="middle" x="466" y="-496.3" font-family="Times,serif" font-size="14.00">3: note</text>
<polyline fill="none" stroke="blue" points="425,-488.5 507,-488.5 "/>
<text text-anchor="middle" x="466" y="-473.3" font-family="Times,serif" font-size="14.00">4: sequence</text>
</g>
<!-- notes&#45;&gt;flowers -->
<g id="edge5" class="edge"><title>notes:port1&#45;&gt;flowers:port0:w</title>
<path fill="none" stroke="grey" d="M508.5,-546.5C517.556,-546.5 510.261,-473.625 507.5,-465 497.765,-434.588 476.158,-436.436 466.5,-406 449.009,-350.878 409.171,-277.089 455.45,-268.355"/>
<polygon fill="grey" stroke="grey" points="455.833,-271.836 465.5,-267.5 455.239,-264.861 455.833,-271.836"/>
</g>
<!-- object_locations -->
<g id="node9" class="node"><title>object_locations</title>
<path fill="none" stroke="blue" d="M896,-442.5C896,-442.5 1073,-442.5 1073,-442.5 1079,-442.5 1085,-448.5 1085,-454.5 1085,-454.5 1085,-568.5 1085,-568.5 1085,-574.5 1079,-580.5 1073,-580.5 1073,-580.5 896,-580.5 896,-580.5 890,-580.5 884,-574.5 884,-568.5 884,-568.5 884,-454.5 884,-454.5 884,-448.5 890,-442.5 896,-442.5"/>
<text text-anchor="middle" x="937.5" y="-507.8" font-family="Times,serif" font-size="14.00">object_locations</text>
<polyline fill="none" stroke="blue" points="991,-442.5 991,-580.5 "/>
<text text-anchor="middle" x="1038" y="-565.3" font-family="Times,serif" font-size="14.00">1: garden_id</text>
<polyline fill="none" stroke="blue" points="991,-557.5 1085,-557.5 "/>
<text text-anchor="middle" x="1038" y="-542.3" font-family="Times,serif" font-size="14.00">2: id</text>
<polyline fill="none" stroke="blue" points="991,-534.5 1085,-534.5 "/>
<text text-anchor="middle" x="1038" y="-519.3" font-family="Times,serif" font-size="14.00">3: object_id</text>
<polyline fill="none" stroke="blue" points="991,-511.5 1085,-511.5 "/>
<text text-anchor="middle" x="1038" y="-496.3" font-family="Times,serif" font-size="14.00">4: property_id</text>
<polyline fill="none" stroke="blue" points="991,-488.5 1085,-488.5 "/>
<text text-anchor="middle" x="1038" y="-473.3" font-family="Times,serif" font-size="14.00">5: x</text>
<polyline fill="none" stroke="blue" points="991,-465.5 1085,-465.5 "/>
<text text-anchor="middle" x="1038" y="-450.3" font-family="Times,serif" font-size="14.00">6: y</text>
</g>
<!-- object_locations&#45;&gt;gardens -->
<g id="edge8" class="edge"><title>object_locations:port1&#45;&gt;gardens:port0:w</title>
<path fill="none" stroke="grey" d="M1038.5,-581.5C1038.5,-602.171 1070.54,-595.273 1085,-580.5 1095.76,-569.502 1093.18,-455.036 1085,-442 1065.46,-410.849 1043.54,-422.142 1010.5,-406 937.903,-370.534 890.737,-393.756 847.5,-325.5 842.38,-317.418 837.208,-289.384 840.152,-275.466"/>
<polygon fill="grey" stroke="grey" points="843.005,-277.502 846.5,-267.5 837.531,-273.139 843.005,-277.502"/>
</g>
<!-- objects -->
<g id="node10" class="node"><title>objects</title>
<path fill="none" stroke="blue" d="M1031,-221.5C1031,-221.5 1148,-221.5 1148,-221.5 1154,-221.5 1160,-227.5 1160,-233.5 1160,-233.5 1160,-301.5 1160,-301.5 1160,-307.5 1154,-313.5 1148,-313.5 1148,-313.5 1031,-313.5 1031,-313.5 1025,-313.5 1019,-307.5 1019,-301.5 1019,-301.5 1019,-233.5 1019,-233.5 1019,-227.5 1025,-221.5 1031,-221.5"/>
<text text-anchor="middle" x="1047" y="-263.8" font-family="Times,serif" font-size="14.00">objects</text>
<polyline fill="none" stroke="blue" points="1075,-221.5 1075,-313.5 "/>
<text text-anchor="middle" x="1117.5" y="-298.3" font-family="Times,serif" font-size="14.00">1: hex_color</text>
<polyline fill="none" stroke="blue" points="1075,-290.5 1160,-290.5 "/>
<text text-anchor="middle" x="1117.5" y="-275.3" font-family="Times,serif" font-size="14.00">2: id</text>
<polyline fill="none" stroke="blue" points="1075,-267.5 1160,-267.5 "/>
<text text-anchor="middle" x="1117.5" y="-252.3" font-family="Times,serif" font-size="14.00">3: name</text>
<polyline fill="none" stroke="blue" points="1075,-244.5 1160,-244.5 "/>
<text text-anchor="middle" x="1117.5" y="-229.3" font-family="Times,serif" font-size="14.00">4: publish</text>
</g>
<!-- object_locations&#45;&gt;objects -->
<g id="edge9" class="edge"><title>object_locations:port3&#45;&gt;objects:port0:w</title>
<path fill="none" stroke="grey" d="M1086.5,-523.5C1095.56,-523.5 1087.72,-450.781 1085.5,-442 1069.79,-379.742 1034.5,-376.185 1018.5,-314 1016.73,-307.118 1012.04,-287.72 1012.63,-276.269"/>
<polygon fill="grey" stroke="grey" points="1015.71,-277.942 1017.5,-267.5 1009.59,-274.545 1015.71,-277.942"/>
</g>
<!-- object_locations&#45;&gt;properties -->
<g id="edge12" class="edge"><title>object_locations:port4&#45;&gt;properties:port0:w</title>
<path fill="none" stroke="grey" d="M1086.5,-499.5C1099.4,-499.5 1086.89,-452.418 1094.5,-442 1116.31,-412.14 1149.81,-437.295 1169.5,-406 1235.07,-301.801 1249.04,-222.966 1169.5,-129 1106.9,-55.0506 1017.89,-166.272 954.5,-93 943.828,-80.6644 936.505,-58.8441 944.046,-50.1875"/>
<polygon fill="grey" stroke="grey" points="945.455,-53.3946 953.5,-46.5 942.912,-46.873 945.455,-53.3946"/>
</g>
<!-- urls -->
<g id="node12" class="node"><title>urls</title>
<path fill="none" stroke="blue" d="M537.5,-465.5C537.5,-465.5 633.5,-465.5 633.5,-465.5 639.5,-465.5 645.5,-471.5 645.5,-477.5 645.5,-477.5 645.5,-545.5 645.5,-545.5 645.5,-551.5 639.5,-557.5 633.5,-557.5 633.5,-557.5 537.5,-557.5 537.5,-557.5 531.5,-557.5 525.5,-551.5 525.5,-545.5 525.5,-545.5 525.5,-477.5 525.5,-477.5 525.5,-471.5 531.5,-465.5 537.5,-465.5"/>
<text text-anchor="middle" x="544.5" y="-507.8" font-family="Times,serif" font-size="14.00">urls</text>
<polyline fill="none" stroke="blue" points="563.5,-465.5 563.5,-557.5 "/>
<text text-anchor="middle" x="604.5" y="-542.3" font-family="Times,serif" font-size="14.00">1: flower_id</text>
<polyline fill="none" stroke="blue" points="563.5,-534.5 645.5,-534.5 "/>
<text text-anchor="middle" x="604.5" y="-519.3" font-family="Times,serif" font-size="14.00">2: id</text>
<polyline fill="none" stroke="blue" points="563.5,-511.5 645.5,-511.5 "/>
<text text-anchor="middle" x="604.5" y="-496.3" font-family="Times,serif" font-size="14.00">3: sequence</text>
<polyline fill="none" stroke="blue" points="563.5,-488.5 645.5,-488.5 "/>
<text text-anchor="middle" x="604.5" y="-473.3" font-family="Times,serif" font-size="14.00">4: url</text>
</g>
<!-- urls&#45;&gt;flowers -->
<g id="edge6" class="edge"><title>urls:port1&#45;&gt;flowers:port0:w</title>
<path fill="none" stroke="grey" d="M646.5,-546.5C655.556,-546.5 650.853,-472.305 645.5,-465 595.992,-397.43 515.837,-473.694 466.5,-406 432.439,-359.265 407.164,-278.104 455.268,-268.448"/>
<polygon fill="grey" stroke="grey" points="455.865,-271.907 465.5,-267.5 455.22,-264.937 455.865,-271.907"/>
</g>
</g>
</svg>
