<?xml version="1.0" encoding="UTF-8" standalone="no"?>
<!DOCTYPE svg PUBLIC "-//W3C//DTD SVG 1.1//EN"
 "http://www.w3.org/Graphics/SVG/1.1/DTD/svg11.dtd">
<!-- Generated by graphviz version 2.38.0 (20140413.2041)
 -->
<!-- Title: Perl Pages: 1 -->
<svg width="1248pt" height="603pt"
 viewBox="0.00 0.00 1247.50 602.79" xmlns="http://www.w3.org/2000/svg" xmlns:xlink="http://www.w3.org/1999/xlink">
<g id="graph0" class="graph" transform="scale(1 1) rotate(0) translate(4 598.785)">
<title>Perl</title>
<polygon fill="white" stroke="none" points="-4,4 -4,-598.785 1243.5,-598.785 1243.5,4 -4,4"/>
<!-- attribute_types -->
<g id="node1" class="node"><title>attribute_types</title>
<path fill="none" stroke="blue" d="M144.5,-221.5C144.5,-221.5 300.5,-221.5 300.5,-221.5 306.5,-221.5 312.5,-227.5 312.5,-233.5 312.5,-233.5 312.5,-301.5 312.5,-301.5 312.5,-307.5 306.5,-313.5 300.5,-313.5 300.5,-313.5 144.5,-313.5 144.5,-313.5 138.5,-313.5 132.5,-307.5 132.5,-301.5 132.5,-301.5 132.5,-233.5 132.5,-233.5 132.5,-227.5 138.5,-221.5 144.5,-221.5"/>
<text text-anchor="middle" x="182.5" y="-263.8" font-family="Times,serif" font-size="14.00">attribute_types</text>
<polyline fill="none" stroke="blue" points="232.5,-221.5 232.5,-313.5 "/>
<text text-anchor="middle" x="272.5" y="-298.3" font-family="Times,serif" font-size="14.00">1: id</text>
<polyline fill="none" stroke="blue" points="232.5,-290.5 312.5,-290.5 "/>
<text text-anchor="middle" x="272.5" y="-275.3" font-family="Times,serif" font-size="14.00">2: name</text>
<polyline fill="none" stroke="blue" points="232.5,-267.5 312.5,-267.5 "/>
<text text-anchor="middle" x="272.5" y="-252.3" font-family="Times,serif" font-size="14.00">3: range</text>
<polyline fill="none" stroke="blue" points="232.5,-244.5 312.5,-244.5 "/>
<text text-anchor="middle" x="272.5" y="-229.3" font-family="Times,serif" font-size="14.00">4: sequence</text>
</g>
<!-- attributes -->
<g id="node2" class="node"><title>attributes</title>
<path fill="none" stroke="blue" d="M12,-465.5C12,-465.5 183,-465.5 183,-465.5 189,-465.5 195,-471.5 195,-477.5 195,-477.5 195,-545.5 195,-545.5 195,-551.5 189,-557.5 183,-557.5 183,-557.5 12,-557.5 12,-557.5 6,-557.5 0,-551.5 0,-545.5 0,-545.5 0,-477.5 0,-477.5 0,-471.5 6,-465.5 12,-465.5"/>
<text text-anchor="middle" x="35" y="-507.8" font-family="Times,serif" font-size="14.00">attributes</text>
<polyline fill="none" stroke="blue" points="70,-465.5 70,-557.5 "/>
<text text-anchor="middle" x="132.5" y="-542.3" font-family="Times,serif" font-size="14.00">1: attribute_type_id</text>
<polyline fill="none" stroke="blue" points="70,-534.5 195,-534.5 "/>
<text text-anchor="middle" x="132.5" y="-519.3" font-family="Times,serif" font-size="14.00">2: flower_id</text>
<polyline fill="none" stroke="blue" points="70,-511.5 195,-511.5 "/>
<text text-anchor="middle" x="132.5" y="-496.3" font-family="Times,serif" font-size="14.00">3: id</text>
<polyline fill="none" stroke="blue" points="70,-488.5 195,-488.5 "/>
<text text-anchor="middle" x="132.5" y="-473.3" font-family="Times,serif" font-size="14.00">4: range</text>
</g>
<!-- attributes&#45;&gt;attribute_types -->
<g id="edge1" class="edge"><title>attributes:port1&#45;&gt;attribute_types:port0:w</title>
<path fill="none" stroke="grey" d="M196.5,-546.5C205.556,-546.5 197.333,-473.869 195.5,-465 177.594,-378.344 50.3159,-276.26 121.282,-268.032"/>
<polygon fill="grey" stroke="grey" points="121.696,-271.515 131.5,-267.5 121.331,-264.525 121.696,-271.515"/>
</g>
<!-- flowers -->
<g id="node7" class="node"><title>flowers</title>
<path fill="none" stroke="blue" d="M478.5,-129.5C478.5,-129.5 636.5,-129.5 636.5,-129.5 642.5,-129.5 648.5,-135.5 648.5,-141.5 648.5,-141.5 648.5,-393.5 648.5,-393.5 648.5,-399.5 642.5,-405.5 636.5,-405.5 636.5,-405.5 478.5,-405.5 478.5,-405.5 472.5,-405.5 466.5,-399.5 466.5,-393.5 466.5,-393.5 466.5,-141.5 466.5,-141.5 466.5,-135.5 472.5,-129.5 478.5,-129.5"/>
<text text-anchor="middle" x="495" y="-263.8" font-family="Times,serif" font-size="14.00">flowers</text>
<polyline fill="none" stroke="blue" points="523.5,-129.5 523.5,-405.5 "/>
<text text-anchor="middle" x="586" y="-390.3" font-family="Times,serif" font-size="14.00">1: aliases</text>
<polyline fill="none" stroke="blue" points="523.5,-382.5 648.5,-382.5 "/>
<text text-anchor="middle" x="586" y="-367.3" font-family="Times,serif" font-size="14.00">2: common_name</text>
<polyline fill="none" stroke="blue" points="523.5,-359.5 648.5,-359.5 "/>
<text text-anchor="middle" x="586" y="-344.3" font-family="Times,serif" font-size="14.00">3: height</text>
<polyline fill="none" stroke="blue" points="523.5,-336.5 648.5,-336.5 "/>
<text text-anchor="middle" x="586" y="-321.3" font-family="Times,serif" font-size="14.00">4: id</text>
<polyline fill="none" stroke="blue" points="523.5,-313.5 648.5,-313.5 "/>
<text text-anchor="middle" x="586" y="-298.3" font-family="Times,serif" font-size="14.00">5: max_height</text>
<polyline fill="none" stroke="blue" points="523.5,-290.5 648.5,-290.5 "/>
<text text-anchor="middle" x="586" y="-275.3" font-family="Times,serif" font-size="14.00">6: max_width</text>
<polyline fill="none" stroke="blue" points="523.5,-267.5 648.5,-267.5 "/>
<text text-anchor="middle" x="586" y="-252.3" font-family="Times,serif" font-size="14.00">7: min_height</text>
<polyline fill="none" stroke="blue" points="523.5,-244.5 648.5,-244.5 "/>
<text text-anchor="middle" x="586" y="-229.3" font-family="Times,serif" font-size="14.00">8: min_width</text>
<polyline fill="none" stroke="blue" points="523.5,-221.5 648.5,-221.5 "/>
<text text-anchor="middle" x="586" y="-206.3" font-family="Times,serif" font-size="14.00">9: pig_latin</text>
<polyline fill="none" stroke="blue" points="523.5,-198.5 648.5,-198.5 "/>
<text text-anchor="middle" x="586" y="-183.3" font-family="Times,serif" font-size="14.00">10: publish</text>
<polyline fill="none" stroke="blue" points="523.5,-175.5 648.5,-175.5 "/>
<text text-anchor="middle" x="586" y="-160.3" font-family="Times,serif" font-size="14.00">11: scientific_name</text>
<polyline fill="none" stroke="blue" points="523.5,-152.5 648.5,-152.5 "/>
<text text-anchor="middle" x="586" y="-137.3" font-family="Times,serif" font-size="14.00">12: width</text>
</g>
<!-- attributes&#45;&gt;flowers -->
<g id="edge3" class="edge"><title>attributes:port2&#45;&gt;flowers:port0:w</title>
<path fill="none" stroke="grey" d="M196.5,-523.5C205.589,-523.5 197.784,-449.066 203.5,-442 237.985,-399.371 274.22,-433.767 321.5,-406 394.929,-362.876 378.29,-275.091 455.115,-267.962"/>
<polygon fill="grey" stroke="grey" points="455.666,-271.441 465.5,-267.5 455.354,-264.448 455.666,-271.441"/>
</g>
<!-- constants -->
<g id="node3" class="node"><title>constants</title>
<path fill="none" stroke="blue" d="M1121.5,-477C1121.5,-477 1227.5,-477 1227.5,-477 1233.5,-477 1239.5,-483 1239.5,-489 1239.5,-489 1239.5,-534 1239.5,-534 1239.5,-540 1233.5,-546 1227.5,-546 1227.5,-546 1121.5,-546 1121.5,-546 1115.5,-546 1109.5,-540 1109.5,-534 1109.5,-534 1109.5,-489 1109.5,-489 1109.5,-483 1115.5,-477 1121.5,-477"/>
<text text-anchor="middle" x="1144.5" y="-507.8" font-family="Times,serif" font-size="14.00">constants</text>
<polyline fill="none" stroke="blue" points="1179.5,-477 1179.5,-546 "/>
<text text-anchor="middle" x="1209.5" y="-530.8" font-family="Times,serif" font-size="14.00">1: id</text>
<polyline fill="none" stroke="blue" points="1179.5,-523 1239.5,-523 "/>
<text text-anchor="middle" x="1209.5" y="-507.8" font-family="Times,serif" font-size="14.00">2: name</text>
<polyline fill="none" stroke="blue" points="1179.5,-500 1239.5,-500 "/>
<text text-anchor="middle" x="1209.5" y="-484.8" font-family="Times,serif" font-size="14.00">3: value</text>
</g>
<!-- feature_locations -->
<g id="node4" class="node"><title>feature_locations</title>
<path fill="none" stroke="blue" d="M896,-442.5C896,-442.5 1079,-442.5 1079,-442.5 1085,-442.5 1091,-448.5 1091,-454.5 1091,-454.5 1091,-568.5 1091,-568.5 1091,-574.5 1085,-580.5 1079,-580.5 1079,-580.5 896,-580.5 896,-580.5 890,-580.5 884,-574.5 884,-568.5 884,-568.5 884,-454.5 884,-454.5 884,-448.5 890,-442.5 896,-442.5"/>
<text text-anchor="middle" x="940.5" y="-507.8" font-family="Times,serif" font-size="14.00">feature_locations</text>
<polyline fill="none" stroke="blue" points="997,-442.5 997,-580.5 "/>
<text text-anchor="middle" x="1044" y="-565.3" font-family="Times,serif" font-size="14.00">1: feature_id</text>
<polyline fill="none" stroke="blue" points="997,-557.5 1091,-557.5 "/>
<text text-anchor="middle" x="1044" y="-542.3" font-family="Times,serif" font-size="14.00">2: garden_id</text>
<polyline fill="none" stroke="blue" points="997,-534.5 1091,-534.5 "/>
<text text-anchor="middle" x="1044" y="-519.3" font-family="Times,serif" font-size="14.00">3: id</text>
<polyline fill="none" stroke="blue" points="997,-511.5 1091,-511.5 "/>
<text text-anchor="middle" x="1044" y="-496.3" font-family="Times,serif" font-size="14.00">4: property_id</text>
<polyline fill="none" stroke="blue" points="997,-488.5 1091,-488.5 "/>
<text text-anchor="middle" x="1044" y="-473.3" font-family="Times,serif" font-size="14.00">5: x</text>
<polyline fill="none" stroke="blue" points="997,-465.5 1091,-465.5 "/>
<text text-anchor="middle" x="1044" y="-450.3" font-family="Times,serif" font-size="14.00">6: y</text>
</g>
<!-- features -->
<g id="node5" class="node"><title>features</title>
<path fill="none" stroke="blue" d="M1031.5,-221.5C1031.5,-221.5 1153.5,-221.5 1153.5,-221.5 1159.5,-221.5 1165.5,-227.5 1165.5,-233.5 1165.5,-233.5 1165.5,-301.5 1165.5,-301.5 1165.5,-307.5 1159.5,-313.5 1153.5,-313.5 1153.5,-313.5 1031.5,-313.5 1031.5,-313.5 1025.5,-313.5 1019.5,-307.5 1019.5,-301.5 1019.5,-301.5 1019.5,-233.5 1019.5,-233.5 1019.5,-227.5 1025.5,-221.5 1031.5,-221.5"/>
<text text-anchor="middle" x="1050" y="-263.8" font-family="Times,serif" font-size="14.00">features</text>
<polyline fill="none" stroke="blue" points="1080.5,-221.5 1080.5,-313.5 "/>
<text text-anchor="middle" x="1123" y="-298.3" font-family="Times,serif" font-size="14.00">1: hex_color</text>
<polyline fill="none" stroke="blue" points="1080.5,-290.5 1165.5,-290.5 "/>
<text text-anchor="middle" x="1123" y="-275.3" font-family="Times,serif" font-size="14.00">2: id</text>
<polyline fill="none" stroke="blue" points="1080.5,-267.5 1165.5,-267.5 "/>
<text text-anchor="middle" x="1123" y="-252.3" font-family="Times,serif" font-size="14.00">3: name</text>
<polyline fill="none" stroke="blue" points="1080.5,-244.5 1165.5,-244.5 "/>
<text text-anchor="middle" x="1123" y="-229.3" font-family="Times,serif" font-size="14.00">4: publish</text>
</g>
<!-- feature_locations&#45;&gt;features -->
<g id="edge2" class="edge"><title>feature_locations:port1&#45;&gt;features:port0:w</title>
<path fill="none" stroke="grey" d="M1092.5,-569.5C1106.67,-569.5 1095.14,-455.691 1091.5,-442 1074.71,-378.924 1036.72,-376.959 1019.5,-314 1017.63,-307.146 1012.97,-287.738 1013.6,-276.277"/>
<polygon fill="grey" stroke="grey" points="1016.68,-277.938 1018.5,-267.5 1010.57,-274.527 1016.68,-277.938"/>
</g>
<!-- gardens -->
<g id="node8" class="node"><title>gardens</title>
<path fill="none" stroke="blue" d="M860,-210C860,-210 989,-210 989,-210 995,-210 1001,-216 1001,-222 1001,-222 1001,-313 1001,-313 1001,-319 995,-325 989,-325 989,-325 860,-325 860,-325 854,-325 848,-319 848,-313 848,-313 848,-222 848,-222 848,-216 854,-210 860,-210"/>
<text text-anchor="middle" x="877.5" y="-263.8" font-family="Times,serif" font-size="14.00">gardens</text>
<polyline fill="none" stroke="blue" points="907,-210 907,-325 "/>
<text text-anchor="middle" x="954" y="-309.8" font-family="Times,serif" font-size="14.00">1: description</text>
<polyline fill="none" stroke="blue" points="907,-302 1001,-302 "/>
<text text-anchor="middle" x="954" y="-286.8" font-family="Times,serif" font-size="14.00">2: id</text>
<polyline fill="none" stroke="blue" points="907,-279 1001,-279 "/>
<text text-anchor="middle" x="954" y="-263.8" font-family="Times,serif" font-size="14.00">3: name</text>
<polyline fill="none" stroke="blue" points="907,-256 1001,-256 "/>
<text text-anchor="middle" x="954" y="-240.8" font-family="Times,serif" font-size="14.00">4: property_id</text>
<polyline fill="none" stroke="blue" points="907,-233 1001,-233 "/>
<text text-anchor="middle" x="954" y="-217.8" font-family="Times,serif" font-size="14.00">5: publish</text>
</g>
<!-- feature_locations&#45;&gt;gardens -->
<g id="edge8" class="edge"><title>feature_locations:port2&#45;&gt;gardens:port0:w</title>
<path fill="none" stroke="grey" d="M1092.5,-546.5C1104.11,-546.5 1097.87,-451.706 1091.5,-442 1069.88,-409.07 1046.17,-422.726 1010.5,-406 937.346,-371.697 890.737,-393.756 847.5,-325.5 842.38,-317.418 837.208,-289.384 840.152,-275.466"/>
<polygon fill="grey" stroke="grey" points="843.005,-277.502 846.5,-267.5 837.531,-273.139 843.005,-277.502"/>
</g>
<!-- properties -->
<g id="node11" class="node"><title>properties</title>
<path fill="none" stroke="blue" d="M967,-0.5C967,-0.5 1108,-0.5 1108,-0.5 1114,-0.5 1120,-6.5 1120,-12.5 1120,-12.5 1120,-80.5 1120,-80.5 1120,-86.5 1114,-92.5 1108,-92.5 1108,-92.5 967,-92.5 967,-92.5 961,-92.5 955,-86.5 955,-80.5 955,-80.5 955,-12.5 955,-12.5 955,-6.5 961,-0.5 967,-0.5"/>
<text text-anchor="middle" x="991.5" y="-42.8" font-family="Times,serif" font-size="14.00">properties</text>
<polyline fill="none" stroke="blue" points="1028,-0.5 1028,-92.5 "/>
<text text-anchor="middle" x="1074" y="-77.3" font-family="Times,serif" font-size="14.00">1: description</text>
<polyline fill="none" stroke="blue" points="1028,-69.5 1120,-69.5 "/>
<text text-anchor="middle" x="1074" y="-54.3" font-family="Times,serif" font-size="14.00">2: id</text>
<polyline fill="none" stroke="blue" points="1028,-46.5 1120,-46.5 "/>
<text text-anchor="middle" x="1074" y="-31.3" font-family="Times,serif" font-size="14.00">3: name</text>
<polyline fill="none" stroke="blue" points="1028,-23.5 1120,-23.5 "/>
<text text-anchor="middle" x="1074" y="-8.3" font-family="Times,serif" font-size="14.00">4: publish</text>
</g>
<!-- feature_locations&#45;&gt;properties -->
<g id="edge10" class="edge"><title>feature_locations:port4&#45;&gt;properties:port0:w</title>
<path fill="none" stroke="grey" d="M1092.5,-499.5C1105.4,-499.5 1092.92,-452.438 1100.5,-442 1121.99,-412.407 1155.1,-437.007 1174.5,-406 1239.79,-301.629 1254.21,-222.819 1174.5,-129 1110.35,-53.4959 1019.46,-167.81 954.5,-93 943.806,-80.6842 936.495,-58.8524 944.043,-50.1902"/>
<polygon fill="grey" stroke="grey" points="945.456,-53.3956 953.5,-46.5 942.912,-46.8745 945.456,-53.3956"/>
</g>
<!-- flower_locations -->
<g id="node6" class="node"><title>flower_locations</title>
<path fill="none" stroke="blue" d="M675,-442.5C675,-442.5 854,-442.5 854,-442.5 860,-442.5 866,-448.5 866,-454.5 866,-454.5 866,-568.5 866,-568.5 866,-574.5 860,-580.5 854,-580.5 854,-580.5 675,-580.5 675,-580.5 669,-580.5 663,-574.5 663,-568.5 663,-568.5 663,-454.5 663,-454.5 663,-448.5 669,-442.5 675,-442.5"/>
<text text-anchor="middle" x="717.5" y="-507.8" font-family="Times,serif" font-size="14.00">flower_locations</text>
<polyline fill="none" stroke="blue" points="772,-442.5 772,-580.5 "/>
<text text-anchor="middle" x="819" y="-565.3" font-family="Times,serif" font-size="14.00">1: flower_id</text>
<polyline fill="none" stroke="blue" points="772,-557.5 866,-557.5 "/>
<text text-anchor="middle" x="819" y="-542.3" font-family="Times,serif" font-size="14.00">2: garden_id</text>
<polyline fill="none" stroke="blue" points="772,-534.5 866,-534.5 "/>
<text text-anchor="middle" x="819" y="-519.3" font-family="Times,serif" font-size="14.00">3: id</text>
<polyline fill="none" stroke="blue" points="772,-511.5 866,-511.5 "/>
<text text-anchor="middle" x="819" y="-496.3" font-family="Times,serif" font-size="14.00">4: property_id</text>
<polyline fill="none" stroke="blue" points="772,-488.5 866,-488.5 "/>
<text text-anchor="middle" x="819" y="-473.3" font-family="Times,serif" font-size="14.00">5: x</text>
<polyline fill="none" stroke="blue" points="772,-465.5 866,-465.5 "/>
<text text-anchor="middle" x="819" y="-450.3" font-family="Times,serif" font-size="14.00">6: y</text>
</g>
<!-- flower_locations&#45;&gt;flowers -->
<g id="edge4" class="edge"><title>flower_locations:port1&#45;&gt;flowers:port0:w</title>
<path fill="none" stroke="grey" d="M819.5,-581.5C819.5,-602.171 851.541,-595.273 866,-580.5 876.764,-569.502 876.382,-453.359 866,-442 805.865,-376.203 526.872,-471.58 466.5,-406 427.251,-363.365 406.459,-278.259 455.516,-268.432"/>
<polygon fill="grey" stroke="grey" points="455.868,-271.914 465.5,-267.5 455.218,-264.944 455.868,-271.914"/>
</g>
<!-- flower_locations&#45;&gt;gardens -->
<g id="edge9" class="edge"><title>flower_locations:port2&#45;&gt;gardens:port0:w</title>
<path fill="none" stroke="grey" d="M867.5,-546.5C879.112,-546.5 867.493,-453.569 866.5,-442 862.014,-389.73 852.187,-377.752 847.5,-325.5 845.629,-304.636 829.118,-279.387 836.821,-270.652"/>
<polygon fill="grey" stroke="grey" points="838.075,-273.925 846.5,-267.5 835.908,-267.269 838.075,-273.925"/>
</g>
<!-- flower_locations&#45;&gt;properties -->
<g id="edge11" class="edge"><title>flower_locations:port4&#45;&gt;properties:port0:w</title>
<path fill="none" stroke="grey" d="M867.5,-499.5C880.28,-499.5 870.752,-454.051 866.5,-442 859.755,-422.885 845.078,-425.173 838.5,-406 798.546,-289.552 782.279,-238.524 838.5,-129 865.599,-76.2088 887.932,-49.6008 943.184,-46.7559"/>
<polygon fill="grey" stroke="grey" points="943.59,-50.247 953.5,-46.5 943.416,-43.2492 943.59,-50.247"/>
</g>
<!-- gardens&#45;&gt;properties -->
<g id="edge12" class="edge"><title>gardens:port4&#45;&gt;properties:port0:w</title>
<path fill="none" stroke="grey" d="M1002.5,-244.5C1018.06,-244.5 1004.68,-224.733 1001.5,-209.5 990.079,-154.848 965.728,-147.692 954.5,-93 951.382,-77.8131 940.751,-59.2503 944.351,-50.9181"/>
<polygon fill="grey" stroke="grey" points="946.017,-54.0003 953.5,-46.5 942.973,-47.6968 946.017,-54.0003"/>
</g>
<!-- images -->
<g id="node9" class="node"><title>images</title>
<path fill="none" stroke="blue" d="M225,-465.5C225,-465.5 348,-465.5 348,-465.5 354,-465.5 360,-471.5 360,-477.5 360,-477.5 360,-545.5 360,-545.5 360,-551.5 354,-557.5 348,-557.5 348,-557.5 225,-557.5 225,-557.5 219,-557.5 213,-551.5 213,-545.5 213,-545.5 213,-477.5 213,-477.5 213,-471.5 219,-465.5 225,-465.5"/>
<text text-anchor="middle" x="240.5" y="-507.8" font-family="Times,serif" font-size="14.00">images</text>
<polyline fill="none" stroke="blue" points="268,-465.5 268,-557.5 "/>
<text text-anchor="middle" x="314" y="-542.3" font-family="Times,serif" font-size="14.00">1: description</text>
<polyline fill="none" stroke="blue" points="268,-534.5 360,-534.5 "/>
<text text-anchor="middle" x="314" y="-519.3" font-family="Times,serif" font-size="14.00">2: file_name</text>
<polyline fill="none" stroke="blue" points="268,-511.5 360,-511.5 "/>
<text text-anchor="middle" x="314" y="-496.3" font-family="Times,serif" font-size="14.00">3: flower_id</text>
<polyline fill="none" stroke="blue" points="268,-488.5 360,-488.5 "/>
<text text-anchor="middle" x="314" y="-473.3" font-family="Times,serif" font-size="14.00">4: id</text>
</g>
<!-- images&#45;&gt;flowers -->
<g id="edge5" class="edge"><title>images:port3&#45;&gt;flowers:port0:w</title>
<path fill="none" stroke="grey" d="M361.5,-499.5C374.372,-499.5 364.521,-454.242 368.5,-442 394.802,-361.074 378.261,-274.882 455.116,-267.948"/>
<polygon fill="grey" stroke="grey" points="455.66,-271.428 465.5,-267.5 455.358,-264.435 455.66,-271.428"/>
</g>
<!-- notes -->
<g id="node10" class="node"><title>notes</title>
<path fill="none" stroke="blue" d="M390,-477C390,-477 495,-477 495,-477 501,-477 507,-483 507,-489 507,-489 507,-534 507,-534 507,-540 501,-546 495,-546 495,-546 390,-546 390,-546 384,-546 378,-540 378,-534 378,-534 378,-489 378,-489 378,-483 384,-477 390,-477"/>
<text text-anchor="middle" x="401.5" y="-507.8" font-family="Times,serif" font-size="14.00">notes</text>
<polyline fill="none" stroke="blue" points="425,-477 425,-546 "/>
<text text-anchor="middle" x="466" y="-530.8" font-family="Times,serif" font-size="14.00">1: flower_id</text>
<polyline fill="none" stroke="blue" points="425,-523 507,-523 "/>
<text text-anchor="middle" x="466" y="-507.8" font-family="Times,serif" font-size="14.00">2: id</text>
<polyline fill="none" stroke="blue" points="425,-500 507,-500 "/>
<text text-anchor="middle" x="466" y="-484.8" font-family="Times,serif" font-size="14.00">3: note</text>
</g>
<!-- notes&#45;&gt;flowers -->
<g id="edge6" class="edge"><title>notes:port1&#45;&gt;flowers:port0:w</title>
<path fill="none" stroke="grey" d="M508.5,-534.5C521.391,-534.5 510.963,-488.917 507.5,-476.5 497.762,-441.586 476.063,-440.963 466.5,-406 451.243,-350.219 409.441,-277.009 455.474,-268.348"/>
<polygon fill="grey" stroke="grey" points="455.831,-271.831 465.5,-267.5 455.24,-264.856 455.831,-271.831"/>
</g>
<!-- urls -->
<g id="node12" class="node"><title>urls</title>
<path fill="none" stroke="blue" d="M537.5,-477C537.5,-477 633.5,-477 633.5,-477 639.5,-477 645.5,-483 645.5,-489 645.5,-489 645.5,-534 645.5,-534 645.5,-540 639.5,-546 633.5,-546 633.5,-546 537.5,-546 537.5,-546 531.5,-546 525.5,-540 525.5,-534 525.5,-534 525.5,-489 525.5,-489 525.5,-483 531.5,-477 537.5,-477"/>
<text text-anchor="middle" x="544.5" y="-507.8" font-family="Times,serif" font-size="14.00">urls</text>
<polyline fill="none" stroke="blue" points="563.5,-477 563.5,-546 "/>
<text text-anchor="middle" x="604.5" y="-530.8" font-family="Times,serif" font-size="14.00">1: flower_id</text>
<polyline fill="none" stroke="blue" points="563.5,-523 645.5,-523 "/>
<text text-anchor="middle" x="604.5" y="-507.8" font-family="Times,serif" font-size="14.00">2: id</text>
<polyline fill="none" stroke="blue" points="563.5,-500 645.5,-500 "/>
<text text-anchor="middle" x="604.5" y="-484.8" font-family="Times,serif" font-size="14.00">3: url</text>
</g>
<!-- urls&#45;&gt;flowers -->
<g id="edge7" class="edge"><title>urls:port1&#45;&gt;flowers:port0:w</title>
<path fill="none" stroke="grey" d="M646.5,-534.5C652.945,-534.5 649.173,-481.796 645.5,-476.5 596.769,-406.242 514.878,-476.501 466.5,-406 433.779,-358.317 407.327,-277.99 455.282,-268.437"/>
<polygon fill="grey" stroke="grey" points="455.862,-271.899 465.5,-267.5 455.222,-264.928 455.862,-271.899"/>
</g>
</g>
</svg>
