<?xml version="1.0" encoding="UTF-8" standalone="no"?>
<!DOCTYPE svg PUBLIC "-//W3C//DTD SVG 1.1//EN"
 "http://www.w3.org/Graphics/SVG/1.1/DTD/svg11.dtd">
<!-- Generated by graphviz version 2.38.0 (20140413.2041)
 -->
<!-- Title: Perl Pages: 1 -->
<svg width="1237pt" height="464pt"
 viewBox="0.00 0.00 1236.50 463.82" xmlns="http://www.w3.org/2000/svg" xmlns:xlink="http://www.w3.org/1999/xlink">
<g id="graph0" class="graph" transform="scale(1 1) rotate(0) translate(4 459.822)">
<title>Perl</title>
<polygon fill="white" stroke="none" points="-4,4 -4,-459.822 1232.5,-459.822 1232.5,4 -4,4"/>
<!-- attribute_types -->
<g id="node1" class="node"><title>attribute_types</title>
<path fill="none" stroke="blue" d="M144.5,-175.5C144.5,-175.5 300.5,-175.5 300.5,-175.5 306.5,-175.5 312.5,-181.5 312.5,-187.5 312.5,-187.5 312.5,-255.5 312.5,-255.5 312.5,-261.5 306.5,-267.5 300.5,-267.5 300.5,-267.5 144.5,-267.5 144.5,-267.5 138.5,-267.5 132.5,-261.5 132.5,-255.5 132.5,-255.5 132.5,-187.5 132.5,-187.5 132.5,-181.5 138.5,-175.5 144.5,-175.5"/>
<text text-anchor="middle" x="182.5" y="-217.8" font-family="Times,serif" font-size="14.00">attribute_types</text>
<polyline fill="none" stroke="blue" points="232.5,-175.5 232.5,-267.5 "/>
<text text-anchor="middle" x="272.5" y="-252.3" font-family="Times,serif" font-size="14.00">1: id</text>
<polyline fill="none" stroke="blue" points="232.5,-244.5 312.5,-244.5 "/>
<text text-anchor="middle" x="272.5" y="-229.3" font-family="Times,serif" font-size="14.00">2: menu</text>
<polyline fill="none" stroke="blue" points="232.5,-221.5 312.5,-221.5 "/>
<text text-anchor="middle" x="272.5" y="-206.3" font-family="Times,serif" font-size="14.00">3: name</text>
<polyline fill="none" stroke="blue" points="232.5,-198.5 312.5,-198.5 "/>
<text text-anchor="middle" x="272.5" y="-183.3" font-family="Times,serif" font-size="14.00">4: sequence</text>
</g>
<!-- attributes -->
<g id="node2" class="node"><title>attributes</title>
<path fill="none" stroke="blue" d="M12,-339C12,-339 183,-339 183,-339 189,-339 195,-345 195,-351 195,-351 195,-419 195,-419 195,-425 189,-431 183,-431 183,-431 12,-431 12,-431 6,-431 0,-425 0,-419 0,-419 0,-351 0,-351 0,-345 6,-339 12,-339"/>
<text text-anchor="middle" x="35" y="-381.3" font-family="Times,serif" font-size="14.00">attributes</text>
<polyline fill="none" stroke="blue" points="70,-339 70,-431 "/>
<text text-anchor="middle" x="132.5" y="-415.8" font-family="Times,serif" font-size="14.00">1: attribute_type_id</text>
<polyline fill="none" stroke="blue" points="70,-408 195,-408 "/>
<text text-anchor="middle" x="132.5" y="-392.8" font-family="Times,serif" font-size="14.00">2: flower_id</text>
<polyline fill="none" stroke="blue" points="70,-385 195,-385 "/>
<text text-anchor="middle" x="132.5" y="-369.8" font-family="Times,serif" font-size="14.00">3: id</text>
<polyline fill="none" stroke="blue" points="70,-362 195,-362 "/>
<text text-anchor="middle" x="132.5" y="-346.8" font-family="Times,serif" font-size="14.00">4: values</text>
</g>
<!-- attributes&#45;&gt;attribute_types -->
<g id="edge1" class="edge"><title>attributes:port1&#45;&gt;attribute_types:port0:w</title>
<path fill="none" stroke="grey" d="M196.5,-420C205.556,-420 198.781,-346.941 195.5,-338.5 180.274,-299.334 147.906,-307.095 132.5,-268 126.697,-253.276 117.077,-233.84 122.163,-225.539"/>
<polygon fill="grey" stroke="grey" points="123.712,-228.683 131.5,-221.5 120.932,-222.258 123.712,-228.683"/>
</g>
<!-- flowers -->
<g id="node5" class="node"><title>flowers</title>
<path fill="none" stroke="blue" d="M479,-152.5C479,-152.5 630,-152.5 630,-152.5 636,-152.5 642,-158.5 642,-164.5 642,-164.5 642,-278.5 642,-278.5 642,-284.5 636,-290.5 630,-290.5 630,-290.5 479,-290.5 479,-290.5 473,-290.5 467,-284.5 467,-278.5 467,-278.5 467,-164.5 467,-164.5 467,-158.5 473,-152.5 479,-152.5"/>
<text text-anchor="middle" x="495.5" y="-217.8" font-family="Times,serif" font-size="14.00">flowers</text>
<polyline fill="none" stroke="blue" points="524,-152.5 524,-290.5 "/>
<text text-anchor="middle" x="583" y="-275.3" font-family="Times,serif" font-size="14.00">1: aliases</text>
<polyline fill="none" stroke="blue" points="524,-267.5 642,-267.5 "/>
<text text-anchor="middle" x="583" y="-252.3" font-family="Times,serif" font-size="14.00">2: common_name</text>
<polyline fill="none" stroke="blue" points="524,-244.5 642,-244.5 "/>
<text text-anchor="middle" x="583" y="-229.3" font-family="Times,serif" font-size="14.00">3: height</text>
<polyline fill="none" stroke="blue" points="524,-221.5 642,-221.5 "/>
<text text-anchor="middle" x="583" y="-206.3" font-family="Times,serif" font-size="14.00">4: id</text>
<polyline fill="none" stroke="blue" points="524,-198.5 642,-198.5 "/>
<text text-anchor="middle" x="583" y="-183.3" font-family="Times,serif" font-size="14.00">5: scientific_name</text>
<polyline fill="none" stroke="blue" points="524,-175.5 642,-175.5 "/>
<text text-anchor="middle" x="583" y="-160.3" font-family="Times,serif" font-size="14.00">6: width</text>
</g>
<!-- attributes&#45;&gt;flowers -->
<g id="edge3" class="edge"><title>attributes:port2&#45;&gt;flowers:port0:w</title>
<path fill="none" stroke="grey" d="M196.5,-397C212.133,-397 193.583,-339.085 203.5,-327 238.282,-284.614 270.437,-310.975 321.5,-291 384.32,-266.425 393.596,-225.884 455.155,-221.829"/>
<polygon fill="grey" stroke="grey" points="455.616,-225.317 465.5,-221.5 455.394,-218.32 455.616,-225.317"/>
</g>
<!-- colors -->
<g id="node3" class="node"><title>colors</title>
<path fill="none" stroke="blue" d="M1130.5,-0.5C1130.5,-0.5 1216.5,-0.5 1216.5,-0.5 1222.5,-0.5 1228.5,-6.5 1228.5,-12.5 1228.5,-12.5 1228.5,-103.5 1228.5,-103.5 1228.5,-109.5 1222.5,-115.5 1216.5,-115.5 1216.5,-115.5 1130.5,-115.5 1130.5,-115.5 1124.5,-115.5 1118.5,-109.5 1118.5,-103.5 1118.5,-103.5 1118.5,-12.5 1118.5,-12.5 1118.5,-6.5 1124.5,-0.5 1130.5,-0.5"/>
<text text-anchor="middle" x="1143.5" y="-54.3" font-family="Times,serif" font-size="14.00">colors</text>
<polyline fill="none" stroke="blue" points="1168.5,-0.5 1168.5,-115.5 "/>
<text text-anchor="middle" x="1198.5" y="-100.3" font-family="Times,serif" font-size="14.00">1: color</text>
<polyline fill="none" stroke="blue" points="1168.5,-92.5 1228.5,-92.5 "/>
<text text-anchor="middle" x="1198.5" y="-77.3" font-family="Times,serif" font-size="14.00">2: hex</text>
<polyline fill="none" stroke="blue" points="1168.5,-69.5 1228.5,-69.5 "/>
<text text-anchor="middle" x="1198.5" y="-54.3" font-family="Times,serif" font-size="14.00">3: id</text>
<polyline fill="none" stroke="blue" points="1168.5,-46.5 1228.5,-46.5 "/>
<text text-anchor="middle" x="1198.5" y="-31.3" font-family="Times,serif" font-size="14.00">4: name</text>
<polyline fill="none" stroke="blue" points="1168.5,-23.5 1228.5,-23.5 "/>
<text text-anchor="middle" x="1198.5" y="-8.3" font-family="Times,serif" font-size="14.00">5: rgb</text>
</g>
<!-- flower_locations -->
<g id="node4" class="node"><title>flower_locations</title>
<path fill="none" stroke="blue" d="M676,-327.5C676,-327.5 845,-327.5 845,-327.5 851,-327.5 857,-333.5 857,-339.5 857,-339.5 857,-430.5 857,-430.5 857,-436.5 851,-442.5 845,-442.5 845,-442.5 676,-442.5 676,-442.5 670,-442.5 664,-436.5 664,-430.5 664,-430.5 664,-339.5 664,-339.5 664,-333.5 670,-327.5 676,-327.5"/>
<text text-anchor="middle" x="718.5" y="-381.3" font-family="Times,serif" font-size="14.00">flower_locations</text>
<polyline fill="none" stroke="blue" points="773,-327.5 773,-442.5 "/>
<text text-anchor="middle" x="815" y="-427.3" font-family="Times,serif" font-size="14.00">1: flower_id</text>
<polyline fill="none" stroke="blue" points="773,-419.5 857,-419.5 "/>
<text text-anchor="middle" x="815" y="-404.3" font-family="Times,serif" font-size="14.00">2: garden_id</text>
<polyline fill="none" stroke="blue" points="773,-396.5 857,-396.5 "/>
<text text-anchor="middle" x="815" y="-381.3" font-family="Times,serif" font-size="14.00">3: id</text>
<polyline fill="none" stroke="blue" points="773,-373.5 857,-373.5 "/>
<text text-anchor="middle" x="815" y="-358.3" font-family="Times,serif" font-size="14.00">4: x</text>
<polyline fill="none" stroke="blue" points="773,-350.5 857,-350.5 "/>
<text text-anchor="middle" x="815" y="-335.3" font-family="Times,serif" font-size="14.00">5: y</text>
</g>
<!-- flower_locations&#45;&gt;flowers -->
<g id="edge4" class="edge"><title>flower_locations:port1&#45;&gt;flowers:port0:w</title>
<path fill="none" stroke="grey" d="M815.5,-444C815.5,-462.45 844.112,-456.202 857,-443 866.003,-433.777 865.685,-336.523 857,-327 798.275,-262.612 525.687,-354.964 466.5,-291 448.306,-271.337 437.684,-233.512 455.329,-223.812"/>
<polygon fill="grey" stroke="grey" points="456.524,-227.129 465.5,-221.5 454.973,-220.303 456.524,-227.129"/>
</g>
<!-- gardens -->
<g id="node6" class="node"><title>gardens</title>
<path fill="none" stroke="blue" d="M848,-187C848,-187 975,-187 975,-187 981,-187 987,-193 987,-199 987,-199 987,-244 987,-244 987,-250 981,-256 975,-256 975,-256 848,-256 848,-256 842,-256 836,-250 836,-244 836,-244 836,-199 836,-199 836,-193 842,-187 848,-187"/>
<text text-anchor="middle" x="865.5" y="-217.8" font-family="Times,serif" font-size="14.00">gardens</text>
<polyline fill="none" stroke="blue" points="895,-187 895,-256 "/>
<text text-anchor="middle" x="941" y="-240.8" font-family="Times,serif" font-size="14.00">1: description</text>
<polyline fill="none" stroke="blue" points="895,-233 987,-233 "/>
<text text-anchor="middle" x="941" y="-217.8" font-family="Times,serif" font-size="14.00">2: id</text>
<polyline fill="none" stroke="blue" points="895,-210 987,-210 "/>
<text text-anchor="middle" x="941" y="-194.8" font-family="Times,serif" font-size="14.00">3: name</text>
</g>
<!-- flower_locations&#45;&gt;gardens -->
<g id="edge8" class="edge"><title>flower_locations:port2&#45;&gt;gardens:port0:w</title>
<path fill="none" stroke="grey" d="M858.5,-408C867.501,-408 858.911,-335.889 857.5,-327 852.354,-294.582 840.908,-288.875 835.5,-256.5 833.897,-246.907 827.829,-235.633 827.302,-228.527"/>
<polygon fill="grey" stroke="grey" points="829.789,-230.99 834.5,-221.5 824.899,-225.981 829.789,-230.99"/>
</g>
<!-- images -->
<g id="node7" class="node"><title>images</title>
<path fill="none" stroke="blue" d="M225,-327.5C225,-327.5 348,-327.5 348,-327.5 354,-327.5 360,-333.5 360,-339.5 360,-339.5 360,-430.5 360,-430.5 360,-436.5 354,-442.5 348,-442.5 348,-442.5 225,-442.5 225,-442.5 219,-442.5 213,-436.5 213,-430.5 213,-430.5 213,-339.5 213,-339.5 213,-333.5 219,-327.5 225,-327.5"/>
<text text-anchor="middle" x="240.5" y="-381.3" font-family="Times,serif" font-size="14.00">images</text>
<polyline fill="none" stroke="blue" points="268,-327.5 268,-442.5 "/>
<text text-anchor="middle" x="314" y="-427.3" font-family="Times,serif" font-size="14.00">1: description</text>
<polyline fill="none" stroke="blue" points="268,-419.5 360,-419.5 "/>
<text text-anchor="middle" x="314" y="-404.3" font-family="Times,serif" font-size="14.00">2: file_name</text>
<polyline fill="none" stroke="blue" points="268,-396.5 360,-396.5 "/>
<text text-anchor="middle" x="314" y="-381.3" font-family="Times,serif" font-size="14.00">3: flower_id</text>
<polyline fill="none" stroke="blue" points="268,-373.5 360,-373.5 "/>
<text text-anchor="middle" x="314" y="-358.3" font-family="Times,serif" font-size="14.00">4: id</text>
<polyline fill="none" stroke="blue" points="268,-350.5 360,-350.5 "/>
<text text-anchor="middle" x="314" y="-335.3" font-family="Times,serif" font-size="14.00">5: sequence</text>
</g>
<!-- images&#45;&gt;flowers -->
<g id="edge5" class="edge"><title>images:port3&#45;&gt;flowers:port0:w</title>
<path fill="none" stroke="grey" d="M361.5,-385C374.482,-385 363.067,-338.791 368.5,-327 393.646,-272.427 400.987,-226.931 455.212,-221.952"/>
<polygon fill="grey" stroke="grey" points="455.663,-225.435 465.5,-221.5 455.356,-218.442 455.663,-225.435"/>
</g>
<!-- notes -->
<g id="node8" class="node"><title>notes</title>
<path fill="none" stroke="blue" d="M390,-339C390,-339 495,-339 495,-339 501,-339 507,-345 507,-351 507,-351 507,-419 507,-419 507,-425 501,-431 495,-431 495,-431 390,-431 390,-431 384,-431 378,-425 378,-419 378,-419 378,-351 378,-351 378,-345 384,-339 390,-339"/>
<text text-anchor="middle" x="401.5" y="-381.3" font-family="Times,serif" font-size="14.00">notes</text>
<polyline fill="none" stroke="blue" points="425,-339 425,-431 "/>
<text text-anchor="middle" x="466" y="-415.8" font-family="Times,serif" font-size="14.00">1: flower_id</text>
<polyline fill="none" stroke="blue" points="425,-408 507,-408 "/>
<text text-anchor="middle" x="466" y="-392.8" font-family="Times,serif" font-size="14.00">2: id</text>
<polyline fill="none" stroke="blue" points="425,-385 507,-385 "/>
<text text-anchor="middle" x="466" y="-369.8" font-family="Times,serif" font-size="14.00">3: note</text>
<polyline fill="none" stroke="blue" points="425,-362 507,-362 "/>
<text text-anchor="middle" x="466" y="-346.8" font-family="Times,serif" font-size="14.00">4: sequence</text>
</g>
<!-- notes&#45;&gt;flowers -->
<g id="edge6" class="edge"><title>notes:port1&#45;&gt;flowers:port0:w</title>
<path fill="none" stroke="grey" d="M508.5,-420C517.556,-420 510.709,-346.969 507.5,-338.5 497.619,-312.421 476.409,-317.068 466.5,-291 457.068,-266.184 440.294,-232.693 455.369,-223.764"/>
<polygon fill="grey" stroke="grey" points="456.504,-227.097 465.5,-221.5 454.977,-220.266 456.504,-227.097"/>
</g>
<!-- object_locations -->
<g id="node9" class="node"><title>object_locations</title>
<path fill="none" stroke="blue" d="M887,-327.5C887,-327.5 1054,-327.5 1054,-327.5 1060,-327.5 1066,-333.5 1066,-339.5 1066,-339.5 1066,-430.5 1066,-430.5 1066,-436.5 1060,-442.5 1054,-442.5 1054,-442.5 887,-442.5 887,-442.5 881,-442.5 875,-436.5 875,-430.5 875,-430.5 875,-339.5 875,-339.5 875,-333.5 881,-327.5 887,-327.5"/>
<text text-anchor="middle" x="928.5" y="-381.3" font-family="Times,serif" font-size="14.00">object_locations</text>
<polyline fill="none" stroke="blue" points="982,-327.5 982,-442.5 "/>
<text text-anchor="middle" x="1024" y="-427.3" font-family="Times,serif" font-size="14.00">1: garden_id</text>
<polyline fill="none" stroke="blue" points="982,-419.5 1066,-419.5 "/>
<text text-anchor="middle" x="1024" y="-404.3" font-family="Times,serif" font-size="14.00">2: id</text>
<polyline fill="none" stroke="blue" points="982,-396.5 1066,-396.5 "/>
<text text-anchor="middle" x="1024" y="-381.3" font-family="Times,serif" font-size="14.00">3: object_id</text>
<polyline fill="none" stroke="blue" points="982,-373.5 1066,-373.5 "/>
<text text-anchor="middle" x="1024" y="-358.3" font-family="Times,serif" font-size="14.00">4: x</text>
<polyline fill="none" stroke="blue" points="982,-350.5 1066,-350.5 "/>
<text text-anchor="middle" x="1024" y="-335.3" font-family="Times,serif" font-size="14.00">5: y</text>
</g>
<!-- object_locations&#45;&gt;gardens -->
<g id="edge9" class="edge"><title>object_locations:port1&#45;&gt;gardens:port0:w</title>
<path fill="none" stroke="grey" d="M1024.5,-444C1024.5,-462.45 1053.11,-456.202 1066,-443 1102.01,-406.108 1096.66,-368.445 1066,-327 1002.28,-240.88 900.441,-341.701 835.5,-256.5 829.014,-247.991 823.618,-234.639 825.936,-227.125"/>
<polygon fill="grey" stroke="grey" points="828.063,-229.915 834.5,-221.5 824.22,-224.064 828.063,-229.915"/>
</g>
<!-- objects -->
<g id="node10" class="node"><title>objects</title>
<path fill="none" stroke="blue" d="M1037,-187C1037,-187 1144,-187 1144,-187 1150,-187 1156,-193 1156,-199 1156,-199 1156,-244 1156,-244 1156,-250 1150,-256 1144,-256 1144,-256 1037,-256 1037,-256 1031,-256 1025,-250 1025,-244 1025,-244 1025,-199 1025,-199 1025,-193 1031,-187 1037,-187"/>
<text text-anchor="middle" x="1053" y="-217.8" font-family="Times,serif" font-size="14.00">objects</text>
<polyline fill="none" stroke="blue" points="1081,-187 1081,-256 "/>
<text text-anchor="middle" x="1118.5" y="-240.8" font-family="Times,serif" font-size="14.00">1: color_id</text>
<polyline fill="none" stroke="blue" points="1081,-233 1156,-233 "/>
<text text-anchor="middle" x="1118.5" y="-217.8" font-family="Times,serif" font-size="14.00">2: id</text>
<polyline fill="none" stroke="blue" points="1081,-210 1156,-210 "/>
<text text-anchor="middle" x="1118.5" y="-194.8" font-family="Times,serif" font-size="14.00">3: name</text>
</g>
<!-- object_locations&#45;&gt;objects -->
<g id="edge10" class="edge"><title>object_locations:port3&#45;&gt;objects:port0:w</title>
<path fill="none" stroke="grey" d="M1067.5,-385C1093.28,-385 1073.56,-351.797 1066.5,-327 1056.52,-291.921 1034.68,-291.522 1024.5,-256.5 1021.72,-246.927 1015.7,-235.255 1015.83,-228.103"/>
<polygon fill="grey" stroke="grey" points="1018.21,-230.677 1023.5,-221.5 1013.64,-225.372 1018.21,-230.677"/>
</g>
<!-- objects&#45;&gt;colors -->
<g id="edge2" class="edge"><title>objects:port1&#45;&gt;colors:port0:w</title>
<path fill="none" stroke="grey" d="M1157.5,-244.5C1238.3,-244.5 1051.72,-75.0746 1107.46,-59.191"/>
<polygon fill="grey" stroke="grey" points="1107.98,-62.6535 1117.5,-58 1107.16,-55.7022 1107.98,-62.6535"/>
</g>
<!-- urls -->
<g id="node11" class="node"><title>urls</title>
<path fill="none" stroke="blue" d="M537.5,-339C537.5,-339 633.5,-339 633.5,-339 639.5,-339 645.5,-345 645.5,-351 645.5,-351 645.5,-419 645.5,-419 645.5,-425 639.5,-431 633.5,-431 633.5,-431 537.5,-431 537.5,-431 531.5,-431 525.5,-425 525.5,-419 525.5,-419 525.5,-351 525.5,-351 525.5,-345 531.5,-339 537.5,-339"/>
<text text-anchor="middle" x="544.5" y="-381.3" font-family="Times,serif" font-size="14.00">urls</text>
<polyline fill="none" stroke="blue" points="563.5,-339 563.5,-431 "/>
<text text-anchor="middle" x="604.5" y="-415.8" font-family="Times,serif" font-size="14.00">1: flower_id</text>
<polyline fill="none" stroke="blue" points="563.5,-408 645.5,-408 "/>
<text text-anchor="middle" x="604.5" y="-392.8" font-family="Times,serif" font-size="14.00">2: id</text>
<polyline fill="none" stroke="blue" points="563.5,-385 645.5,-385 "/>
<text text-anchor="middle" x="604.5" y="-369.8" font-family="Times,serif" font-size="14.00">3: sequence</text>
<polyline fill="none" stroke="blue" points="563.5,-362 645.5,-362 "/>
<text text-anchor="middle" x="604.5" y="-346.8" font-family="Times,serif" font-size="14.00">4: url</text>
</g>
<!-- urls&#45;&gt;flowers -->
<g id="edge7" class="edge"><title>urls:port1&#45;&gt;flowers:port0:w</title>
<path fill="none" stroke="grey" d="M604.5,-432C604.5,-450.228 632.769,-444.045 645.5,-431 652.678,-423.644 651.767,-346.646 645.5,-338.5 595.315,-273.26 517.153,-355.877 466.5,-291 450.014,-269.884 438.138,-233.126 455.42,-223.735"/>
<polygon fill="grey" stroke="grey" points="456.495,-227.081 465.5,-221.5 454.979,-220.247 456.495,-227.081"/>
</g>
</g>
</svg>
