<?xml version="1.0" encoding="UTF-8" standalone="no"?>
<!DOCTYPE svg PUBLIC "-//W3C//DTD SVG 1.1//EN"
 "http://www.w3.org/Graphics/SVG/1.1/DTD/svg11.dtd">
<!-- Generated by graphviz version 2.38.0 (20140413.2041)
 -->
<!-- Title: Perl Pages: 1 -->
<svg width="1223pt" height="579pt"
 viewBox="0.00 0.00 1222.50 578.82" xmlns="http://www.w3.org/2000/svg" xmlns:xlink="http://www.w3.org/1999/xlink">
<g id="graph0" class="graph" transform="scale(1 1) rotate(0) translate(4 574.822)">
<title>Perl</title>
<polygon fill="white" stroke="none" points="-4,4 -4,-574.822 1218.5,-574.822 1218.5,4 -4,4"/>
<!-- attribute_types -->
<g id="node1" class="node"><title>attribute_types</title>
<path fill="none" stroke="blue" d="M144.5,-221.5C144.5,-221.5 300.5,-221.5 300.5,-221.5 306.5,-221.5 312.5,-227.5 312.5,-233.5 312.5,-233.5 312.5,-301.5 312.5,-301.5 312.5,-307.5 306.5,-313.5 300.5,-313.5 300.5,-313.5 144.5,-313.5 144.5,-313.5 138.5,-313.5 132.5,-307.5 132.5,-301.5 132.5,-301.5 132.5,-233.5 132.5,-233.5 132.5,-227.5 138.5,-221.5 144.5,-221.5"/>
<text text-anchor="middle" x="182.5" y="-263.8" font-family="Times,serif" font-size="14.00">attribute_types</text>
<polyline fill="none" stroke="blue" points="232.5,-221.5 232.5,-313.5 "/>
<text text-anchor="middle" x="272.5" y="-298.3" font-family="Times,serif" font-size="14.00">1: id</text>
<polyline fill="none" stroke="blue" points="232.5,-290.5 312.5,-290.5 "/>
<text text-anchor="middle" x="272.5" y="-275.3" font-family="Times,serif" font-size="14.00">2: name</text>
<polyline fill="none" stroke="blue" points="232.5,-267.5 312.5,-267.5 "/>
<text text-anchor="middle" x="272.5" y="-252.3" font-family="Times,serif" font-size="14.00">3: range</text>
<polyline fill="none" stroke="blue" points="232.5,-244.5 312.5,-244.5 "/>
<text text-anchor="middle" x="272.5" y="-229.3" font-family="Times,serif" font-size="14.00">4: sequence</text>
</g>
<!-- attributes -->
<g id="node2" class="node"><title>attributes</title>
<path fill="none" stroke="blue" d="M12,-454C12,-454 183,-454 183,-454 189,-454 195,-460 195,-466 195,-466 195,-534 195,-534 195,-540 189,-546 183,-546 183,-546 12,-546 12,-546 6,-546 0,-540 0,-534 0,-534 0,-466 0,-466 0,-460 6,-454 12,-454"/>
<text text-anchor="middle" x="35" y="-496.3" font-family="Times,serif" font-size="14.00">attributes</text>
<polyline fill="none" stroke="blue" points="70,-454 70,-546 "/>
<text text-anchor="middle" x="132.5" y="-530.8" font-family="Times,serif" font-size="14.00">1: attribute_type_id</text>
<polyline fill="none" stroke="blue" points="70,-523 195,-523 "/>
<text text-anchor="middle" x="132.5" y="-507.8" font-family="Times,serif" font-size="14.00">2: flower_id</text>
<polyline fill="none" stroke="blue" points="70,-500 195,-500 "/>
<text text-anchor="middle" x="132.5" y="-484.8" font-family="Times,serif" font-size="14.00">3: id</text>
<polyline fill="none" stroke="blue" points="70,-477 195,-477 "/>
<text text-anchor="middle" x="132.5" y="-461.8" font-family="Times,serif" font-size="14.00">4: range</text>
</g>
<!-- attributes&#45;&gt;attribute_types -->
<g id="edge1" class="edge"><title>attributes:port1&#45;&gt;attribute_types:port0:w</title>
<path fill="none" stroke="grey" d="M196.5,-535C205.556,-535 197.461,-462.341 195.5,-453.5 177.386,-371.817 55.2532,-276.121 121.422,-268.048"/>
<polygon fill="grey" stroke="grey" points="121.705,-271.538 131.5,-267.5 121.325,-264.549 121.705,-271.538"/>
</g>
<!-- flowers -->
<g id="node5" class="node"><title>flowers</title>
<path fill="none" stroke="blue" d="M478.5,-129.5C478.5,-129.5 636.5,-129.5 636.5,-129.5 642.5,-129.5 648.5,-135.5 648.5,-141.5 648.5,-141.5 648.5,-393.5 648.5,-393.5 648.5,-399.5 642.5,-405.5 636.5,-405.5 636.5,-405.5 478.5,-405.5 478.5,-405.5 472.5,-405.5 466.5,-399.5 466.5,-393.5 466.5,-393.5 466.5,-141.5 466.5,-141.5 466.5,-135.5 472.5,-129.5 478.5,-129.5"/>
<text text-anchor="middle" x="495" y="-263.8" font-family="Times,serif" font-size="14.00">flowers</text>
<polyline fill="none" stroke="blue" points="523.5,-129.5 523.5,-405.5 "/>
<text text-anchor="middle" x="586" y="-390.3" font-family="Times,serif" font-size="14.00">1: aliases</text>
<polyline fill="none" stroke="blue" points="523.5,-382.5 648.5,-382.5 "/>
<text text-anchor="middle" x="586" y="-367.3" font-family="Times,serif" font-size="14.00">2: common_name</text>
<polyline fill="none" stroke="blue" points="523.5,-359.5 648.5,-359.5 "/>
<text text-anchor="middle" x="586" y="-344.3" font-family="Times,serif" font-size="14.00">3: height</text>
<polyline fill="none" stroke="blue" points="523.5,-336.5 648.5,-336.5 "/>
<text text-anchor="middle" x="586" y="-321.3" font-family="Times,serif" font-size="14.00">4: id</text>
<polyline fill="none" stroke="blue" points="523.5,-313.5 648.5,-313.5 "/>
<text text-anchor="middle" x="586" y="-298.3" font-family="Times,serif" font-size="14.00">5: max_height</text>
<polyline fill="none" stroke="blue" points="523.5,-290.5 648.5,-290.5 "/>
<text text-anchor="middle" x="586" y="-275.3" font-family="Times,serif" font-size="14.00">6: max_width</text>
<polyline fill="none" stroke="blue" points="523.5,-267.5 648.5,-267.5 "/>
<text text-anchor="middle" x="586" y="-252.3" font-family="Times,serif" font-size="14.00">7: min_height</text>
<polyline fill="none" stroke="blue" points="523.5,-244.5 648.5,-244.5 "/>
<text text-anchor="middle" x="586" y="-229.3" font-family="Times,serif" font-size="14.00">8: min_width</text>
<polyline fill="none" stroke="blue" points="523.5,-221.5 648.5,-221.5 "/>
<text text-anchor="middle" x="586" y="-206.3" font-family="Times,serif" font-size="14.00">9: pig_latin</text>
<polyline fill="none" stroke="blue" points="523.5,-198.5 648.5,-198.5 "/>
<text text-anchor="middle" x="586" y="-183.3" font-family="Times,serif" font-size="14.00">10: publish</text>
<polyline fill="none" stroke="blue" points="523.5,-175.5 648.5,-175.5 "/>
<text text-anchor="middle" x="586" y="-160.3" font-family="Times,serif" font-size="14.00">11: scientific_name</text>
<polyline fill="none" stroke="blue" points="523.5,-152.5 648.5,-152.5 "/>
<text text-anchor="middle" x="586" y="-137.3" font-family="Times,serif" font-size="14.00">12: width</text>
</g>
<!-- attributes&#45;&gt;flowers -->
<g id="edge2" class="edge"><title>attributes:port2&#45;&gt;flowers:port0:w</title>
<path fill="none" stroke="grey" d="M196.5,-512C212.133,-512 193.583,-454.085 203.5,-442 238.282,-399.614 274.22,-433.767 321.5,-406 394.929,-362.876 378.29,-275.091 455.115,-267.962"/>
<polygon fill="grey" stroke="grey" points="455.666,-271.441 465.5,-267.5 455.354,-264.448 455.666,-271.441"/>
</g>
<!-- constants -->
<g id="node3" class="node"><title>constants</title>
<path fill="none" stroke="blue" d="M1096.5,-465.5C1096.5,-465.5 1202.5,-465.5 1202.5,-465.5 1208.5,-465.5 1214.5,-471.5 1214.5,-477.5 1214.5,-477.5 1214.5,-522.5 1214.5,-522.5 1214.5,-528.5 1208.5,-534.5 1202.5,-534.5 1202.5,-534.5 1096.5,-534.5 1096.5,-534.5 1090.5,-534.5 1084.5,-528.5 1084.5,-522.5 1084.5,-522.5 1084.5,-477.5 1084.5,-477.5 1084.5,-471.5 1090.5,-465.5 1096.5,-465.5"/>
<text text-anchor="middle" x="1119.5" y="-496.3" font-family="Times,serif" font-size="14.00">constants</text>
<polyline fill="none" stroke="blue" points="1154.5,-465.5 1154.5,-534.5 "/>
<text text-anchor="middle" x="1184.5" y="-519.3" font-family="Times,serif" font-size="14.00">1: id</text>
<polyline fill="none" stroke="blue" points="1154.5,-511.5 1214.5,-511.5 "/>
<text text-anchor="middle" x="1184.5" y="-496.3" font-family="Times,serif" font-size="14.00">2: name</text>
<polyline fill="none" stroke="blue" points="1154.5,-488.5 1214.5,-488.5 "/>
<text text-anchor="middle" x="1184.5" y="-473.3" font-family="Times,serif" font-size="14.00">3: value</text>
</g>
<!-- flower_locations -->
<g id="node4" class="node"><title>flower_locations</title>
<path fill="none" stroke="blue" d="M676,-442.5C676,-442.5 845,-442.5 845,-442.5 851,-442.5 857,-448.5 857,-454.5 857,-454.5 857,-545.5 857,-545.5 857,-551.5 851,-557.5 845,-557.5 845,-557.5 676,-557.5 676,-557.5 670,-557.5 664,-551.5 664,-545.5 664,-545.5 664,-454.5 664,-454.5 664,-448.5 670,-442.5 676,-442.5"/>
<text text-anchor="middle" x="718.5" y="-496.3" font-family="Times,serif" font-size="14.00">flower_locations</text>
<polyline fill="none" stroke="blue" points="773,-442.5 773,-557.5 "/>
<text text-anchor="middle" x="815" y="-542.3" font-family="Times,serif" font-size="14.00">1: flower_id</text>
<polyline fill="none" stroke="blue" points="773,-534.5 857,-534.5 "/>
<text text-anchor="middle" x="815" y="-519.3" font-family="Times,serif" font-size="14.00">2: garden_id</text>
<polyline fill="none" stroke="blue" points="773,-511.5 857,-511.5 "/>
<text text-anchor="middle" x="815" y="-496.3" font-family="Times,serif" font-size="14.00">3: id</text>
<polyline fill="none" stroke="blue" points="773,-488.5 857,-488.5 "/>
<text text-anchor="middle" x="815" y="-473.3" font-family="Times,serif" font-size="14.00">4: x</text>
<polyline fill="none" stroke="blue" points="773,-465.5 857,-465.5 "/>
<text text-anchor="middle" x="815" y="-450.3" font-family="Times,serif" font-size="14.00">5: y</text>
</g>
<!-- flower_locations&#45;&gt;flowers -->
<g id="edge3" class="edge"><title>flower_locations:port1&#45;&gt;flowers:port0:w</title>
<path fill="none" stroke="grey" d="M815.5,-559C815.5,-577.45 844.112,-571.202 857,-558 866.003,-548.777 865.685,-451.523 857,-442 798.275,-377.612 525.457,-470.175 466.5,-406 427.295,-363.325 406.465,-278.254 455.516,-268.431"/>
<polygon fill="grey" stroke="grey" points="455.868,-271.914 465.5,-267.5 455.218,-264.944 455.868,-271.914"/>
</g>
<!-- gardens -->
<g id="node6" class="node"><title>gardens</title>
<path fill="none" stroke="blue" d="M847,-210C847,-210 976,-210 976,-210 982,-210 988,-216 988,-222 988,-222 988,-313 988,-313 988,-319 982,-325 976,-325 976,-325 847,-325 847,-325 841,-325 835,-319 835,-313 835,-313 835,-222 835,-222 835,-216 841,-210 847,-210"/>
<text text-anchor="middle" x="864.5" y="-263.8" font-family="Times,serif" font-size="14.00">gardens</text>
<polyline fill="none" stroke="blue" points="894,-210 894,-325 "/>
<text text-anchor="middle" x="941" y="-309.8" font-family="Times,serif" font-size="14.00">1: description</text>
<polyline fill="none" stroke="blue" points="894,-302 988,-302 "/>
<text text-anchor="middle" x="941" y="-286.8" font-family="Times,serif" font-size="14.00">2: id</text>
<polyline fill="none" stroke="blue" points="894,-279 988,-279 "/>
<text text-anchor="middle" x="941" y="-263.8" font-family="Times,serif" font-size="14.00">3: name</text>
<polyline fill="none" stroke="blue" points="894,-256 988,-256 "/>
<text text-anchor="middle" x="941" y="-240.8" font-family="Times,serif" font-size="14.00">4: property_id</text>
<polyline fill="none" stroke="blue" points="894,-233 988,-233 "/>
<text text-anchor="middle" x="941" y="-217.8" font-family="Times,serif" font-size="14.00">5: publish</text>
</g>
<!-- flower_locations&#45;&gt;gardens -->
<g id="edge7" class="edge"><title>flower_locations:port2&#45;&gt;gardens:port0:w</title>
<path fill="none" stroke="grey" d="M858.5,-523C867.501,-523 858.431,-450.952 857.5,-442 852.04,-389.506 840.088,-377.981 834.5,-325.5 832.282,-304.67 815.988,-279.4 823.785,-270.656"/>
<polygon fill="grey" stroke="grey" points="825.07,-273.918 833.5,-267.5 822.908,-267.26 825.07,-273.918"/>
</g>
<!-- properties -->
<g id="node11" class="node"><title>properties</title>
<path fill="none" stroke="blue" d="M954,-0.5C954,-0.5 1095,-0.5 1095,-0.5 1101,-0.5 1107,-6.5 1107,-12.5 1107,-12.5 1107,-80.5 1107,-80.5 1107,-86.5 1101,-92.5 1095,-92.5 1095,-92.5 954,-92.5 954,-92.5 948,-92.5 942,-86.5 942,-80.5 942,-80.5 942,-12.5 942,-12.5 942,-6.5 948,-0.5 954,-0.5"/>
<text text-anchor="middle" x="978.5" y="-42.8" font-family="Times,serif" font-size="14.00">properties</text>
<polyline fill="none" stroke="blue" points="1015,-0.5 1015,-92.5 "/>
<text text-anchor="middle" x="1061" y="-77.3" font-family="Times,serif" font-size="14.00">1: description</text>
<polyline fill="none" stroke="blue" points="1015,-69.5 1107,-69.5 "/>
<text text-anchor="middle" x="1061" y="-54.3" font-family="Times,serif" font-size="14.00">2: id</text>
<polyline fill="none" stroke="blue" points="1015,-46.5 1107,-46.5 "/>
<text text-anchor="middle" x="1061" y="-31.3" font-family="Times,serif" font-size="14.00">3: name</text>
<polyline fill="none" stroke="blue" points="1015,-23.5 1107,-23.5 "/>
<text text-anchor="middle" x="1061" y="-8.3" font-family="Times,serif" font-size="14.00">4: publish</text>
</g>
<!-- gardens&#45;&gt;properties -->
<g id="edge10" class="edge"><title>gardens:port4&#45;&gt;properties:port0:w</title>
<path fill="none" stroke="grey" d="M989.5,-244.5C1076.26,-244.5 869.045,-63.1501 930.541,-47.5653"/>
<polygon fill="grey" stroke="grey" points="930.929,-51.0438 940.5,-46.5 930.184,-44.0835 930.929,-51.0438"/>
</g>
<!-- images -->
<g id="node7" class="node"><title>images</title>
<path fill="none" stroke="blue" d="M225,-442.5C225,-442.5 348,-442.5 348,-442.5 354,-442.5 360,-448.5 360,-454.5 360,-454.5 360,-545.5 360,-545.5 360,-551.5 354,-557.5 348,-557.5 348,-557.5 225,-557.5 225,-557.5 219,-557.5 213,-551.5 213,-545.5 213,-545.5 213,-454.5 213,-454.5 213,-448.5 219,-442.5 225,-442.5"/>
<text text-anchor="middle" x="240.5" y="-496.3" font-family="Times,serif" font-size="14.00">images</text>
<polyline fill="none" stroke="blue" points="268,-442.5 268,-557.5 "/>
<text text-anchor="middle" x="314" y="-542.3" font-family="Times,serif" font-size="14.00">1: description</text>
<polyline fill="none" stroke="blue" points="268,-534.5 360,-534.5 "/>
<text text-anchor="middle" x="314" y="-519.3" font-family="Times,serif" font-size="14.00">2: file_name</text>
<polyline fill="none" stroke="blue" points="268,-511.5 360,-511.5 "/>
<text text-anchor="middle" x="314" y="-496.3" font-family="Times,serif" font-size="14.00">3: flower_id</text>
<polyline fill="none" stroke="blue" points="268,-488.5 360,-488.5 "/>
<text text-anchor="middle" x="314" y="-473.3" font-family="Times,serif" font-size="14.00">4: id</text>
<polyline fill="none" stroke="blue" points="268,-465.5 360,-465.5 "/>
<text text-anchor="middle" x="314" y="-450.3" font-family="Times,serif" font-size="14.00">5: sequence</text>
</g>
<!-- images&#45;&gt;flowers -->
<g id="edge4" class="edge"><title>images:port3&#45;&gt;flowers:port0:w</title>
<path fill="none" stroke="grey" d="M361.5,-500C374.482,-500 364.494,-454.349 368.5,-442 394.76,-361.06 378.257,-274.881 455.115,-267.948"/>
<polygon fill="grey" stroke="grey" points="455.66,-271.428 465.5,-267.5 455.358,-264.434 455.66,-271.428"/>
</g>
<!-- notes -->
<g id="node8" class="node"><title>notes</title>
<path fill="none" stroke="blue" d="M390,-454C390,-454 495,-454 495,-454 501,-454 507,-460 507,-466 507,-466 507,-534 507,-534 507,-540 501,-546 495,-546 495,-546 390,-546 390,-546 384,-546 378,-540 378,-534 378,-534 378,-466 378,-466 378,-460 384,-454 390,-454"/>
<text text-anchor="middle" x="401.5" y="-496.3" font-family="Times,serif" font-size="14.00">notes</text>
<polyline fill="none" stroke="blue" points="425,-454 425,-546 "/>
<text text-anchor="middle" x="466" y="-530.8" font-family="Times,serif" font-size="14.00">1: flower_id</text>
<polyline fill="none" stroke="blue" points="425,-523 507,-523 "/>
<text text-anchor="middle" x="466" y="-507.8" font-family="Times,serif" font-size="14.00">2: id</text>
<polyline fill="none" stroke="blue" points="425,-500 507,-500 "/>
<text text-anchor="middle" x="466" y="-484.8" font-family="Times,serif" font-size="14.00">3: note</text>
<polyline fill="none" stroke="blue" points="425,-477 507,-477 "/>
<text text-anchor="middle" x="466" y="-461.8" font-family="Times,serif" font-size="14.00">4: sequence</text>
</g>
<!-- notes&#45;&gt;flowers -->
<g id="edge5" class="edge"><title>notes:port1&#45;&gt;flowers:port0:w</title>
<path fill="none" stroke="grey" d="M508.5,-535C517.556,-535 510.709,-461.969 507.5,-453.5 497.619,-427.421 476.315,-432.104 466.5,-406 446.147,-351.87 408.824,-277.209 455.418,-268.366"/>
<polygon fill="grey" stroke="grey" points="455.836,-271.843 465.5,-267.5 455.237,-264.869 455.836,-271.843"/>
</g>
<!-- object_locations -->
<g id="node9" class="node"><title>object_locations</title>
<path fill="none" stroke="blue" d="M887,-442.5C887,-442.5 1054,-442.5 1054,-442.5 1060,-442.5 1066,-448.5 1066,-454.5 1066,-454.5 1066,-545.5 1066,-545.5 1066,-551.5 1060,-557.5 1054,-557.5 1054,-557.5 887,-557.5 887,-557.5 881,-557.5 875,-551.5 875,-545.5 875,-545.5 875,-454.5 875,-454.5 875,-448.5 881,-442.5 887,-442.5"/>
<text text-anchor="middle" x="928.5" y="-496.3" font-family="Times,serif" font-size="14.00">object_locations</text>
<polyline fill="none" stroke="blue" points="982,-442.5 982,-557.5 "/>
<text text-anchor="middle" x="1024" y="-542.3" font-family="Times,serif" font-size="14.00">1: garden_id</text>
<polyline fill="none" stroke="blue" points="982,-534.5 1066,-534.5 "/>
<text text-anchor="middle" x="1024" y="-519.3" font-family="Times,serif" font-size="14.00">2: id</text>
<polyline fill="none" stroke="blue" points="982,-511.5 1066,-511.5 "/>
<text text-anchor="middle" x="1024" y="-496.3" font-family="Times,serif" font-size="14.00">3: object_id</text>
<polyline fill="none" stroke="blue" points="982,-488.5 1066,-488.5 "/>
<text text-anchor="middle" x="1024" y="-473.3" font-family="Times,serif" font-size="14.00">4: x</text>
<polyline fill="none" stroke="blue" points="982,-465.5 1066,-465.5 "/>
<text text-anchor="middle" x="1024" y="-450.3" font-family="Times,serif" font-size="14.00">5: y</text>
</g>
<!-- object_locations&#45;&gt;gardens -->
<g id="edge8" class="edge"><title>object_locations:port1&#45;&gt;gardens:port0:w</title>
<path fill="none" stroke="grey" d="M1024.5,-559C1024.5,-577.45 1053.11,-571.202 1066,-558 1075,-548.777 1072.76,-452.973 1066,-442 1035.79,-392.971 865.136,-374.267 834.5,-325.5 823.036,-307.25 812.023,-278.982 823.779,-270.198"/>
<polygon fill="grey" stroke="grey" points="824.8,-273.547 833.5,-267.5 822.928,-266.801 824.8,-273.547"/>
</g>
<!-- objects -->
<g id="node10" class="node"><title>objects</title>
<path fill="none" stroke="blue" d="M1037,-233C1037,-233 1154,-233 1154,-233 1160,-233 1166,-239 1166,-245 1166,-245 1166,-290 1166,-290 1166,-296 1160,-302 1154,-302 1154,-302 1037,-302 1037,-302 1031,-302 1025,-296 1025,-290 1025,-290 1025,-245 1025,-245 1025,-239 1031,-233 1037,-233"/>
<text text-anchor="middle" x="1053" y="-263.8" font-family="Times,serif" font-size="14.00">objects</text>
<polyline fill="none" stroke="blue" points="1081,-233 1081,-302 "/>
<text text-anchor="middle" x="1123.5" y="-286.8" font-family="Times,serif" font-size="14.00">1: hex_color</text>
<polyline fill="none" stroke="blue" points="1081,-279 1166,-279 "/>
<text text-anchor="middle" x="1123.5" y="-263.8" font-family="Times,serif" font-size="14.00">2: id</text>
<polyline fill="none" stroke="blue" points="1081,-256 1166,-256 "/>
<text text-anchor="middle" x="1123.5" y="-240.8" font-family="Times,serif" font-size="14.00">3: name</text>
</g>
<!-- object_locations&#45;&gt;objects -->
<g id="edge9" class="edge"><title>object_locations:port3&#45;&gt;objects:port0:w</title>
<path fill="none" stroke="grey" d="M1067.5,-500C1080.39,-500 1068.49,-454.737 1066.5,-442 1061.01,-406.856 999.513,-295.897 1014.34,-272.045"/>
<polygon fill="grey" stroke="grey" points="1016.1,-275.08 1023.5,-267.5 1012.99,-268.809 1016.1,-275.08"/>
</g>
<!-- urls -->
<g id="node12" class="node"><title>urls</title>
<path fill="none" stroke="blue" d="M537.5,-454C537.5,-454 633.5,-454 633.5,-454 639.5,-454 645.5,-460 645.5,-466 645.5,-466 645.5,-534 645.5,-534 645.5,-540 639.5,-546 633.5,-546 633.5,-546 537.5,-546 537.5,-546 531.5,-546 525.5,-540 525.5,-534 525.5,-534 525.5,-466 525.5,-466 525.5,-460 531.5,-454 537.5,-454"/>
<text text-anchor="middle" x="544.5" y="-496.3" font-family="Times,serif" font-size="14.00">urls</text>
<polyline fill="none" stroke="blue" points="563.5,-454 563.5,-546 "/>
<text text-anchor="middle" x="604.5" y="-530.8" font-family="Times,serif" font-size="14.00">1: flower_id</text>
<polyline fill="none" stroke="blue" points="563.5,-523 645.5,-523 "/>
<text text-anchor="middle" x="604.5" y="-507.8" font-family="Times,serif" font-size="14.00">2: id</text>
<polyline fill="none" stroke="blue" points="563.5,-500 645.5,-500 "/>
<text text-anchor="middle" x="604.5" y="-484.8" font-family="Times,serif" font-size="14.00">3: sequence</text>
<polyline fill="none" stroke="blue" points="563.5,-477 645.5,-477 "/>
<text text-anchor="middle" x="604.5" y="-461.8" font-family="Times,serif" font-size="14.00">4: url</text>
</g>
<!-- urls&#45;&gt;flowers -->
<g id="edge6" class="edge"><title>urls:port1&#45;&gt;flowers:port0:w</title>
<path fill="none" stroke="grey" d="M646.5,-535C655.556,-535 651.066,-460.644 645.5,-453.5 594.915,-388.57 516.921,-471.058 466.5,-406 431.075,-360.29 406.999,-278.229 455.253,-268.459"/>
<polygon fill="grey" stroke="grey" points="455.87,-271.917 465.5,-267.5 455.217,-264.947 455.87,-271.917"/>
</g>
</g>
</svg>
